<svg width="3200" xmlns="http://www.w3.org/2000/svg" height="3200" fill="none"><defs><clipPath id="a" class="frame-clip frame-clip-def"><rect rx="0" ry="0" width="3200" height="3200"/></clipPath></defs><g clip-path="url(#a)"><g class="fills"><rect width="3200" height="3200" class="frame-background" style="fill: rgb(255, 255, 255); fill-opacity: 0;" ry="0" rx="0" fill="none"/></g><g class="frame-children"><g style="opacity: 1;"><path d="m2108.005 664 3.21.602c32.47 6.169 62.22 16.359 91.78 30.921 2.73 1.341 5.46 2.664 8.2 3.981 29.43 14.265 58.18 31.704 81.81 54.496l1.97 1.855c8.05 7.741 14.67 16.924 21.53 25.707.62.799 1.24 1.597 1.89 2.42l1.76 2.272c.53.673 1.05 1.347 1.59 2.041 1.26 1.705 1.26 1.705 2.26 3.705l3.94-.438c42.74-4.349 83.24.608 125.06 9.438l3.76.79c13.96 2.971 27.58 6.562 41.09 11.147 2.91.983 5.82 1.948 8.73 2.91 17.84 5.906 35.25 12.467 52.42 20.153.79.351 1.58.702 2.4 1.064 11.62 5.169 22.72 11.245 33.83 17.414 2.67 1.472 5.36 2.915 8.05 4.35 16.3 8.725 30.75 18.877 44.95 30.704 2.42 2.013 4.88 3.988 7.33 5.968 10.61 8.711 20.88 17.632 30.44 27.5.82.82 1.64 1.64 2.48 2.484 25.24 25.274 44.21 59.237 59.44 91.286 1.28 2.654 2.61 5.282 3.94 7.913 17.1 34.209 25.01 70.059 24.14 108.317l-.06 2.568c-.52 22.383-2.76 44.33-7.01 66.307-.13.674-.26 1.349-.39 2.044-2.16 11.128-2.16 11.128-3.63 14.788-1.1 2.346-1.1 2.346-.91 5.293.82.412 1.64.825 2.49 1.25 7.55 3.907 14.04 8.166 20.51 13.75.68.553 1.37 1.106 2.07 1.676 22.55 18.598 38.05 50.557 40.93 79.324 1.78 25.45-4.48 48.54-14 72 1.17-.289 2.35-.578 3.56-.875 24.83-5.737 53.22-5.491 75.76 7.844 26.49 17.046 42.57 47.985 49.34 78.038.85 3.985 1.61 7.983 2.34 11.993.22 1.248.45 2.495.69 3.781 1.31 8.599 1.54 17.156 1.62 25.844.02 1.633.02 1.633.05 3.298-.01 18.363-3.78 36.344-7.96 54.146a975.22 975.22 0 0 0-2.11 9.185c-3.86 16.781-8.07 33.564-14.86 49.433-.41.984-.83 1.967-1.26 2.981-11.71 27.083-26 50.663-47.11 71.393-.96.95-1.91 1.89-2.86 2.84-2.4 2.37-4.8 4.73-7.2 7.1l-2 2c.04 2 .04 2 .57 4.27.17.88.34 1.75.52 2.66l.59 2.88c.39 2.03.77 4.06 1.16 6.09.29 1.54.29 1.54.59 3.12.28 1.47.28 1.47.57 2.98.16.85.32 1.7.49 2.58 2.01 10.87 2.84 21.7 2.98 32.75.02 1.38.04 2.76.07 4.14.33 15.22-3.76 26.79-13.54 38.53-.75.95-1.49 1.9-2.25 2.87-8.54 6.6-19 8.17-29.32 10.25-5.27 1.08-9.99 2.3-14.87 4.63-4.43 2.09-8.04 2.55-12.93 2.7-8.32.38-16.3 1.84-24.43 3.6-1.52.31-3.04.63-4.56.95-4.13.87-8.25 1.74-12.37 2.62-4.44.95-8.88 1.88-13.33 2.82-7.67 1.62-15.33 3.24-23 4.87-11.2 2.38-22.4 4.75-33.6 7.11-17.92 3.78-35.85 7.58-53.77 11.37-22.37 4.75-44.75 9.47-67.13 14.19-1.7.35-3.4.71-5.1 1.07-6.75 1.42-13.5 2.85-20.25 4.27-10.98 2.31-21.97 4.63-32.95 6.95-51.87 10.94-103.76 21.84-155.64 32.73-58.34 12.24-116.68 24.51-175 36.81-13.72 2.89-27.43 5.79-41.15 8.68-.84.18-1.68.36-2.55.54-37.85 7.98-75.71 15.94-113.56 23.9l-41.44 8.7c-.81.17-1.62.34-2.45.52-39.77 8.35-79.53 16.72-119.29 25.1-2.69.56-5.38 1.13-8.07 1.69l-48.57 10.23c-24.19 5.09-48.37 10.19-72.56 15.28l-8.01 1.68-50.72 10.68c-8.92 1.88-17.83 3.76-26.75 5.63-1.78.38-3.57.75-5.35 1.13l-74.49 15.69-47.76 10.05c-1.77.38-3.55.75-5.32 1.12-42.87 9.03-85.741 18.05-128.617 27.05-.94.2-1.879.39-2.848.6-15.223 3.19-30.446 6.39-45.67 9.58-63.73 13.37-127.452 26.79-191.168 40.23-5.914 1.25-11.828 2.49-17.742 3.74-1.693.36-3.386.72-5.079 1.07-43.721 9.23-87.446 18.43-131.172 27.64-2.847.59-5.694 1.19-8.542 1.79-30.472 6.42-30.472 6.42-44.341 9.34l-4.555.96c-3.547.74-7.094 1.49-10.641 2.23-5.688 1.2-11.375 2.4-17.056 3.63-.873.18-1.746.37-2.646.57-1.516.32-3.032.65-4.546.99-52.33 11.25-98.132-9.28-140.875-36.8-11.254-7.37-21.975-15.04-31.967-24.05-.852-.73-1.704-1.47-2.582-2.22-5.308-4.61-10.096-9.56-14.81-14.77-3.485-3.84-7.09-7.51-10.795-11.14-4.573-4.49-8.682-9.21-12.676-14.23-2.087-2.58-4.266-5.02-6.512-7.45-20.026-22.09-34.655-48.14-44.625-76.19l-.72-2c-3.329-9.49-5.298-19.32-7.233-29.17-.277-1.41-.559-2.82-.845-4.22-1.601-7.94-2.535-15.11-1.189-23.18.221-2.53.221-2.53-1.498-4.5-2.066-1.83-4.244-3.36-6.515-4.93-6.924-5.8-13.296-12.19-19.687-18.56-1.212-1.21-1.212-1.21-2.449-2.44-4.271-4.28-8.385-8.64-12.329-13.22-2.082-2.42-4.246-4.75-6.41-7.09-25.867-28.45-44.425-61.87-62.91-95.34-3.248-5.86-6.539-11.69-10.027-17.41-14.611-24.09-25.583-49.1-34.188-75.94l-.952-2.95c-5.656-17.72-9.448-35.82-13.048-54.05l-.406-2.03c-1.856-9.31-3.274-18.58-4.219-28.03l-.367-3.45c-4.268-41.125-1.95-81.137 6.992-121.491l.427-1.936C465.682 1482.128 484.692 1422.035 523 1373l2.301-2.945C567.428 1317.526 635.544 1279.961 701 1266l-1.574-3.156c-12.368-25.237-18.122-51.519-9.43-78.993 13.425-37.627 43.746-65.669 79.254-82.586 16.343-7.52 33.263-13.087 50.75-17.265l2.858-.685c10.163-2.315 19.789-3.537 30.197-2.885 15.294 1.708 15.294 1.708 29.611-2.036 4.251-4.279 6.641-9.426 9.075-14.88 1.999-3.991 4.808-7.072 7.822-10.327 1.08-1.208 2.159-2.418 3.238-3.629l1.604-1.777c2.661-2.971 5.253-6 7.845-9.031l1.51-1.759a472.962 472.962 0 0 0 8.803-10.616c4.034-4.972 8.302-9.673 12.664-14.356 1.963-2.11 3.841-4.275 5.707-6.472 5.224-5.994 10.916-11.546 16.545-17.156 1.954-1.949 3.903-3.903 5.851-5.858 5.425-5.428 10.83-10.792 16.682-15.763 4.708-4.192 9.062-8.784 13.488-13.27 11.564-11.721 11.564-11.721 17.788-17.038 2.422-2.069 4.749-4.237 7.087-6.4 4.181-3.814 8.477-7.39 12.918-10.894 8.636-6.916 16.866-14.247 24.895-21.856 5.269-4.992 10.588-9.773 16.273-14.293a198.49 198.49 0 0 0 4.953-4.07c9.041-7.655 18.83-14.249 28.586-20.949l2.623-1.806a2563.95 2563.95 0 0 1 16.371-11.161c2.071-1.4 4.139-2.803 6.207-4.207 28.05-19.038 57.021-36.896 87.545-51.717a605.846 605.846 0 0 0 7.848-3.953c17.562-8.932 35.379-17.212 53.406-25.156l1.99-.877c31.517-13.856 63.821-24.995 97.01-34.123l3.613-.995c54.575-14.802 110.942-21.248 167.392-21.192l3.73.002c19.91.033 39.68.459 59.53 1.976 3.03.231 6.05.456 9.08.682 36.23 2.727 72.26 6.61 108.31 11.11 8.18 1.02 16.36 2.022 24.55 3.025 2.59.32 5.19.644 7.78.97l4.63.574 2.07.264c5.15.644 5.15.644 10.32.584 1.87-1.941 1.87-1.941 3.43-4.625 10.51-15.343 25.84-29.101 44.51-32.988 14.75-1.868 27.96.766 40.06 9.613 7.86 6.392 14.89 13.786 22 21 3.33-1.556 6.27-3.483 9.31-5.562 40.57-27.082 84.67-41.278 132.69-47.438.89-.115 1.78-.23 2.71-.348 23.78-2.593 49.83-2.225 73.29 2.348Z" style="fill: rgb(229, 166, 84); fill-opacity: 1;" class="fills"/></g><g style="opacity: 1;"><path d="m2108 664 3.218.602c32.464 6.169 62.219 16.359 91.777 30.921 2.728 1.341 5.464 2.664 8.204 3.981 29.424 14.265 58.173 31.704 81.801 54.496l1.977 1.855c8.053 7.741 14.665 16.924 21.523 25.707l1.891 2.42 1.765 2.272 1.588 2.041C2323 790 2323 790 2324 792l3.949-.438c42.735-4.349 83.241.609 125.051 9.438l3.762.79c13.961 2.971 27.578 6.562 41.097 11.147 2.904.983 5.814 1.948 8.726 2.91 17.844 5.907 35.245 12.468 52.415 20.153l2.405 1.064c11.62 5.17 22.719 11.245 33.833 17.415a663.1 663.1 0 0 0 8.047 4.349c16.304 8.725 30.755 18.877 44.948 30.704 2.424 2.013 4.878 3.988 7.33 5.968 10.613 8.711 20.882 17.632 30.437 27.5l2.488 2.484c25.235 25.274 44.211 59.238 59.435 91.286 1.282 2.654 2.612 5.283 3.94 7.914 17.102 34.208 25.014 70.058 24.137 108.316l-.054 2.568c-.525 22.383-2.763 44.33-7.008 66.307l-.394 2.044c-2.161 11.128-2.161 11.128-3.632 14.789-1.097 2.345-1.097 2.345-.912 5.292l2.492 1.25c7.554 3.907 14.044 8.166 20.508 13.75l2.078 1.676c22.549 18.598 38.047 50.557 40.922 79.324 1.79 25.45-4.475 48.54-14 72l3.567-.875c24.826-5.737 53.22-5.491 75.761 7.844 26.483 17.046 42.567 47.985 49.341 78.038.851 3.985 1.609 7.983 2.331 11.993l.692 3.781c1.313 8.6 1.538 17.157 1.621 25.844l.053 3.299c-.016 18.362-3.785 36.344-7.962 54.145a1436.54 1436.54 0 0 0-2.113 9.185c-3.858 16.781-8.063 33.564-14.853 49.434l-1.262 2.98c-11.711 27.088-25.998 50.665-47.113 71.395l-2.862 2.833A3214.268 3214.268 0 0 1 2866 1719l-2 2c.048 2.001.048 2.001.574 4.27l.521 2.657.593 2.886c.386 2.029.77 4.059 1.152 6.089l.593 3.117.567 2.981.493 2.579c2.012 10.876 2.843 21.698 2.98 32.749.018 1.38.043 2.761.077 4.141.329 15.221-3.768 26.788-13.55 38.531l-2.25 2.875c-8.538 6.598-18.999 8.17-29.32 10.241-5.266 1.087-9.986 2.304-14.867 4.634-4.428 2.094-8.041 2.55-12.923 2.7-8.328.381-16.303 1.839-24.437 3.596a3124.194 3124.194 0 0 0-16.925 3.58c-4.441.946-8.885 1.88-13.328 2.815-7.67 1.616-15.338 3.24-23.005 4.87a21564.98 21564.98 0 0 1-33.599 7.111c-17.926 3.784-35.85 7.576-53.773 11.374a61053.36 61053.36 0 0 1-67.128 14.181l-5.104 1.075-20.246 4.267c-10.984 2.314-21.967 4.63-32.951 6.948A137351.768 137351.768 0 0 1 2352.5 1934c-58.34 12.24-116.674 24.507-175 36.813l-41.145 8.679-2.548.538a145765.49 145765.49 0 0 1-113.565 23.897l-41.433 8.706-2.454.515c-39.766 8.356-79.528 16.726-119.291 25.098l-8.068 1.699-48.574 10.228a1872865.029 1872865.029 0 0 1-131.29 27.641l-26.747 5.631-5.348 1.126c-24.83 5.227-49.66 10.456-74.49 15.685-15.921 3.354-31.842 6.707-47.764 10.059l-5.316 1.12a194438.01 194438.01 0 0 1-128.619 27.045l-2.848.598-45.67 9.584a185853.887 185853.887 0 0 0-191.168 40.227l-17.742 3.743-5.079 1.071a290755.254 290755.254 0 0 1-139.714 29.431l-44.341 9.334-4.555.959-10.641 2.237a2919.55 2919.55 0 0 0-17.056 3.623l-2.646.57c-1.516.327-3.032.657-4.546.992-52.33 11.248-98.132-9.282-140.875-36.802-11.255-7.366-21.975-15.039-31.967-24.047l-2.582-2.219c-5.308-4.614-10.096-9.564-14.81-14.768-3.485-3.839-7.09-7.513-10.795-11.138-4.573-4.496-8.682-9.212-12.676-14.238-2.087-2.575-4.266-5.013-6.512-7.449-20.026-22.084-34.655-48.141-44.625-76.188l-.72-1.999c-3.329-9.487-5.298-19.324-7.233-29.171a670.136 670.136 0 0 0-.845-4.221c-1.601-7.937-2.535-15.103-1.19-23.175.222-2.529.222-2.529-1.497-4.503-2.066-1.83-4.244-3.364-6.515-4.931-6.924-5.8-13.296-12.191-19.687-18.562l-2.449-2.435c-4.271-4.282-8.386-8.638-12.329-13.223-2.082-2.415-4.246-4.751-6.41-7.092-25.868-28.443-44.425-61.865-62.91-95.334-3.248-5.867-6.539-11.69-10.027-17.416-14.611-24.089-25.583-49.096-34.188-75.938l-.952-2.945c-5.656-17.722-9.448-35.827-13.048-54.055l-.406-2.027c-1.856-9.307-3.274-18.586-4.219-28.035l-.367-3.448c-4.268-41.124-1.95-81.136 6.992-121.49l.427-1.936C465.682 1482.128 484.692 1422.035 523 1373l2.301-2.945C567.428 1317.526 635.544 1279.961 701 1266l-1.574-3.156c-12.368-25.237-18.122-51.518-9.43-78.992 13.425-37.628 43.746-65.67 79.254-82.586 16.343-7.521 33.263-13.088 50.75-17.266l2.858-.685c10.163-2.315 19.789-3.537 30.197-2.885 15.294 1.708 15.294 1.708 29.611-2.035 4.251-4.28 6.641-9.427 9.075-14.881 1.999-3.991 4.808-7.072 7.822-10.327 1.08-1.208 2.159-2.418 3.238-3.628l1.604-1.778c2.661-2.971 5.253-6 7.845-9.031l1.51-1.759a472.962 472.962 0 0 0 8.803-10.616c4.034-4.972 8.302-9.673 12.664-14.355 1.963-2.111 3.841-4.276 5.707-6.473 5.224-5.994 10.916-11.546 16.545-17.156 1.954-1.949 3.903-3.903 5.851-5.858 5.425-5.428 10.83-10.792 16.682-15.763 4.708-4.191 9.062-8.784 13.488-13.27 11.564-11.721 11.564-11.721 17.788-17.038 2.422-2.069 4.748-4.237 7.087-6.4 4.181-3.814 8.477-7.39 12.918-10.894 8.636-6.916 16.866-14.247 24.895-21.856 5.269-4.992 10.588-9.773 16.273-14.292a200.776 200.776 0 0 0 4.953-4.071c9.041-7.655 18.829-14.249 28.586-20.949l2.623-1.806c5.442-3.742 10.9-7.46 16.371-11.161a4227.6 4227.6 0 0 0 6.207-4.207c28.05-19.038 57.021-36.895 87.545-51.717a605.846 605.846 0 0 0 7.848-3.953c17.561-8.931 35.379-17.212 53.406-25.156l1.99-.877c31.517-13.856 63.821-24.995 97.01-34.123l3.613-.995c54.575-14.802 110.939-21.248 167.387-21.193l3.738.003c19.903.033 39.681.459 59.527 1.976 3.027.231 6.054.456 9.081.682 36.227 2.727 72.261 6.61 108.307 11.11 8.181 1.02 16.364 2.022 24.547 3.025 2.596.32 5.191.644 7.787.97l4.63.574 2.071.264c5.145.644 5.145.644 10.312.584 1.876-1.941 1.876-1.941 3.438-4.625 10.506-15.343 25.836-29.101 44.507-32.988 14.755-1.868 27.962.766 40.055 9.613 7.866 6.392 14.896 13.786 22 21 3.339-1.556 6.275-3.483 9.313-5.563C1939.886 682.356 1983.987 668.16 2032 662l2.711-.348c23.783-2.593 49.83-2.225 73.289 2.348Z" style="fill: rgb(229, 166, 84); fill-opacity: 1;" class="fills"/></g><g style="opacity: 1;"><path d="m2108.005 664 3.21.602c32.47 6.169 62.22 16.359 91.78 30.921 2.73 1.341 5.46 2.664 8.2 3.981 29.43 14.265 58.18 31.704 81.81 54.496l1.97 1.855c8.05 7.741 14.67 16.924 21.53 25.707.62.799 1.24 1.597 1.89 2.42l1.76 2.272c.53.673 1.05 1.347 1.59 2.041 1.26 1.705 1.26 1.705 2.26 3.705l3.94-.438c42.74-4.349 83.24.608 125.06 9.438l3.76.79c13.96 2.971 27.58 6.562 41.09 11.147 2.91.983 5.82 1.948 8.73 2.91 17.84 5.906 35.25 12.467 52.42 20.153.79.351 1.58.702 2.4 1.064 11.62 5.169 22.72 11.245 33.83 17.414 2.67 1.472 5.36 2.915 8.05 4.35 16.3 8.725 30.75 18.877 44.95 30.704 2.42 2.013 4.88 3.988 7.33 5.968 10.61 8.711 20.88 17.632 30.44 27.5.82.82 1.64 1.64 2.48 2.484 25.24 25.274 44.21 59.237 59.44 91.286 1.28 2.654 2.61 5.282 3.94 7.913 17.1 34.209 25.01 70.059 24.14 108.317l-.06 2.568c-.52 22.383-2.76 44.33-7.01 66.307-.13.674-.26 1.349-.39 2.044-2.16 11.128-2.16 11.128-3.63 14.788-1.1 2.346-1.1 2.346-.91 5.293.82.412 1.64.825 2.49 1.25 7.55 3.907 14.04 8.166 20.51 13.75.68.553 1.37 1.106 2.07 1.676 22.55 18.598 38.05 50.557 40.93 79.324 1.78 25.45-4.48 48.54-14 72 1.17-.289 2.35-.578 3.56-.875 24.83-5.737 53.22-5.491 75.76 7.844 26.49 17.046 42.57 47.985 49.34 78.038.85 3.985 1.61 7.983 2.34 11.993.22 1.248.45 2.495.69 3.781 1.31 8.599 1.54 17.156 1.62 25.844.02 1.633.02 1.633.05 3.298-.01 18.363-3.78 36.344-7.96 54.146a975.22 975.22 0 0 0-2.11 9.185c-3.86 16.781-8.07 33.564-14.86 49.433-.41.984-.83 1.967-1.26 2.981-11.71 27.083-26 50.663-47.11 71.393-.96.95-1.91 1.89-2.86 2.84-2.4 2.37-4.8 4.73-7.2 7.1l-2 2c.04 2 .04 2 .57 4.27.17.88.34 1.75.52 2.66l.59 2.88c.39 2.03.77 4.06 1.16 6.09.29 1.54.29 1.54.59 3.12.28 1.47.28 1.47.57 2.98.16.85.32 1.7.49 2.58 2.01 10.87 2.84 21.7 2.98 32.75.02 1.38.04 2.76.07 4.14.33 15.22-3.76 26.79-13.54 38.53-.75.95-1.49 1.9-2.25 2.87-8.54 6.6-19 8.17-29.32 10.25-5.27 1.08-9.99 2.3-14.87 4.63-4.43 2.09-8.04 2.55-12.93 2.7-8.32.38-16.3 1.84-24.43 3.6-1.52.31-3.04.63-4.56.95-4.13.87-8.25 1.74-12.37 2.62-4.44.95-8.88 1.88-13.33 2.82-7.67 1.62-15.33 3.24-23 4.87-11.2 2.38-22.4 4.75-33.6 7.11-17.92 3.78-35.85 7.58-53.77 11.37-22.37 4.75-44.75 9.47-67.13 14.19-1.7.35-3.4.71-5.1 1.07-6.75 1.42-13.5 2.85-20.25 4.27-10.98 2.31-21.97 4.63-32.95 6.95-51.87 10.94-103.76 21.84-155.64 32.73-58.34 12.24-116.68 24.51-175 36.81-13.72 2.89-27.43 5.79-41.15 8.68-.84.18-1.68.36-2.55.54-37.85 7.98-75.71 15.94-113.56 23.9l-41.44 8.7c-.81.17-1.62.34-2.45.52-39.77 8.35-79.53 16.72-119.29 25.1-2.69.56-5.38 1.13-8.07 1.69l-48.57 10.23c-24.19 5.09-48.37 10.19-72.56 15.28l-8.01 1.68-50.72 10.68c-8.92 1.88-17.83 3.76-26.75 5.63-1.78.38-3.57.75-5.35 1.13l-74.49 15.69-47.76 10.05c-1.77.38-3.55.75-5.32 1.12-42.87 9.03-85.741 18.05-128.617 27.05-.94.2-1.879.39-2.848.6-15.223 3.19-30.446 6.39-45.67 9.58-63.73 13.37-127.452 26.79-191.168 40.23-5.914 1.25-11.828 2.49-17.742 3.74-1.693.36-3.386.72-5.079 1.07-43.721 9.23-87.446 18.43-131.172 27.64-2.847.59-5.694 1.19-8.542 1.79-30.472 6.42-30.472 6.42-44.341 9.34l-4.555.96c-3.547.74-7.094 1.49-10.641 2.23-5.688 1.2-11.375 2.4-17.056 3.63-.873.18-1.746.37-2.646.57-1.516.32-3.032.65-4.546.99-52.33 11.25-98.132-9.28-140.875-36.8-11.254-7.37-21.975-15.04-31.967-24.05-.852-.73-1.704-1.47-2.582-2.22-5.308-4.61-10.096-9.56-14.81-14.77-3.485-3.84-7.09-7.51-10.795-11.14-4.573-4.49-8.682-9.21-12.676-14.23-2.087-2.58-4.266-5.02-6.512-7.45-20.026-22.09-34.655-48.14-44.625-76.19l-.72-2c-3.329-9.49-5.298-19.32-7.233-29.17-.277-1.41-.559-2.82-.845-4.22-1.601-7.94-2.535-15.11-1.189-23.18.221-2.53.221-2.53-1.498-4.5-2.066-1.83-4.244-3.36-6.515-4.93-6.924-5.8-13.296-12.19-19.687-18.56-1.212-1.21-1.212-1.21-2.449-2.44-4.271-4.28-8.385-8.64-12.329-13.22-2.082-2.42-4.246-4.75-6.41-7.09-25.867-28.45-44.425-61.87-62.91-95.34-3.248-5.86-6.539-11.69-10.027-17.41-14.611-24.09-25.583-49.1-34.188-75.94l-.952-2.95c-5.656-17.72-9.448-35.82-13.048-54.05l-.406-2.03c-1.856-9.31-3.274-18.58-4.219-28.03l-.367-3.45c-4.268-41.125-1.95-81.137 6.992-121.491l.427-1.936C465.682 1482.128 484.692 1422.035 523 1373l2.301-2.945C567.428 1317.526 635.544 1279.961 701 1266l-1.574-3.156c-12.368-25.237-18.122-51.519-9.43-78.993 13.425-37.627 43.746-65.669 79.254-82.586 16.343-7.52 33.263-13.087 50.75-17.265l2.858-.685c10.163-2.315 19.789-3.537 30.197-2.885 15.294 1.708 15.294 1.708 29.611-2.036 4.251-4.279 6.641-9.426 9.075-14.88 1.999-3.991 4.808-7.072 7.822-10.327 1.08-1.208 2.159-2.418 3.238-3.629l1.604-1.777c2.661-2.971 5.253-6 7.845-9.031l1.51-1.759a472.962 472.962 0 0 0 8.803-10.616c4.034-4.972 8.302-9.673 12.664-14.356 1.963-2.11 3.841-4.275 5.707-6.472 5.224-5.994 10.916-11.546 16.545-17.156 1.954-1.949 3.903-3.903 5.851-5.858 5.425-5.428 10.83-10.792 16.682-15.763 4.708-4.192 9.062-8.784 13.488-13.27 11.564-11.721 11.564-11.721 17.788-17.038 2.422-2.069 4.749-4.237 7.087-6.4 4.181-3.814 8.477-7.39 12.918-10.894 8.636-6.916 16.866-14.247 24.895-21.856 5.269-4.992 10.588-9.773 16.273-14.293a198.49 198.49 0 0 0 4.953-4.07c9.041-7.655 18.83-14.249 28.586-20.949l2.623-1.806a2563.95 2563.95 0 0 1 16.371-11.161c2.071-1.4 4.139-2.803 6.207-4.207 28.05-19.038 57.021-36.896 87.545-51.717a605.846 605.846 0 0 0 7.848-3.953c17.562-8.932 35.379-17.212 53.406-25.156l1.99-.877c31.517-13.856 63.821-24.995 97.01-34.123l3.613-.995c54.575-14.802 110.942-21.248 167.392-21.192l3.73.002c19.91.033 39.68.459 59.53 1.976 3.03.231 6.05.456 9.08.682 36.23 2.727 72.26 6.61 108.31 11.11 8.18 1.02 16.36 2.022 24.55 3.025 2.59.32 5.19.644 7.78.97l4.63.574 2.07.264c5.15.644 5.15.644 10.32.584 1.87-1.941 1.87-1.941 3.43-4.625 10.51-15.343 25.84-29.101 44.51-32.988 14.75-1.868 27.96.766 40.06 9.613 7.86 6.392 14.89 13.786 22 21 3.33-1.556 6.27-3.483 9.31-5.562 40.57-27.082 84.67-41.278 132.69-47.438.89-.115 1.78-.23 2.71-.348 23.78-2.593 49.83-2.225 73.29 2.348Zm-312 235-3.69 1.16c-30.43 9.612-59.49 21.287-87.34 36.958-5.91 3.322-11.89 6.501-17.91 9.632l-2.91 1.514c-5.23 2.72-10.48 5.414-15.74 8.084-20.66 10.521-40.5 22.203-59.85 34.962-3.16 2.078-6.32 4.142-9.49 6.205-17.75 11.575-35.27 23.331-52.3 35.95-11.09 8.215-22.28 16.24-33.71 23.972-17.12 11.59-34.26 23.411-48.74 38.239-1.99 1.985-4 3.825-6.14 5.636-3.71 3.163-7.09 6.589-10.5 10.063a163.532 163.532 0 0 1-15.068 13.512c-2.65 2.139-5.166 4.377-7.679 6.675-4.007 3.646-8.138 7.065-12.387 10.422-12.151 9.602-24.337 19.38-35.074 30.567a104.657 104.657 0 0 1-5.917 5.391c-5.031 4.388-9.722 9.107-14.421 13.844-1.613 1.626-3.23 3.249-4.848 4.872-3.433 3.444-6.862 6.893-10.291 10.342a12285.36 12285.36 0 0 1-11.943 11.999c-1.58 1.586-3.156 3.175-4.732 4.764-4.737 4.76-9.505 9.424-14.629 13.77-4.994 4.32-9.387 9.182-13.688 14.178a316.549 316.549 0 0 1-5.962 6.569 299.036 299.036 0 0 0-13.612 15.751c-3.392 4.137-6.902 8.166-10.417 12.197a844.46 844.46 0 0 0-8.201 9.526c-4.99 5.899-9.986 11.646-15.585 16.988-1.926 1.949-3.719 3.939-5.512 6.008-3.682 4.244-7.529 8.31-11.406 12.375-15.017 15.882-28.146 32.63-40.387 50.733-5.154 7.576-10.678 14.83-16.305 22.058-19.775 25.429-37.978 51.065-53.912 79.092a945.585 945.585 0 0 1-7.021 12.054l-1.197 2.027-2.33 3.944a2299.68 2299.68 0 0 0-3.571 6.076 1822.668 1822.668 0 0 1-11.801 19.881c-4.489 7.441-8.9 14.917-13.215 22.461-9.22 16.12-18.725 32.069-29.226 47.393-20.415 29.873-34.998 64.247-49.948 97.087-2.507 5.49-5.051 10.97-7.587 16.44-3.096 6.69-6.162 13.39-9.139 20.13-6.756 15.27-14.391 30.12-21.963 45-8.861 17.45-16.693 35.27-23.961 53.44-15.014 37.48-31.092 76.81-55.75 109.06-.976 1.3-1.951 2.61-2.926 3.92a401.631 401.631 0 0 1-20.086 24.65c-2.611 2.97-5.093 6.02-7.55 9.12-3.766 4.66-7.857 8.85-12.135 13.03-2.774 2.72-5.391 5.48-7.865 8.47-26.482 30.88-81.024 51.08-120.438 55.81-3.757.2-7.489.19-11.25.12-.947-.01-1.895-.01-2.871-.02-2.293-.03-4.586-.06-6.879-.1 5.599 14.89 13.995 27.3 24.427 39.19 2.081 2.39 4.043 4.88 6.011 7.37 8.46 10.36 17.923 19.93 27.457 29.29 1.895 1.93 3.59 3.92 5.293 6.02 10.537 12.18 25.288 20.73 38.812 29.13l3.061 1.91c10.261 6.35 20.532 12.7 31.439 17.9l1.936.93c8.375 3.81 16.661 4.6 25.752 4.88 1.013.04 2.026.08 3.069.11 2.008.07 4.017.13 6.025.19 2.291.07 4.58.15 6.87.24 5.376.14 10.251-.11 15.477-1.41a573.754 573.754 0 0 1 16.922-3.77c.856-.17 1.713-.35 2.595-.54l5.382-1.11c14.112-2.93 28.212-5.9 42.285-9.02 11.496-2.54 23.018-4.9 34.569-7.18 10.163-2.01 20.258-4.27 30.35-6.61a505.913 505.913 0 0 1 23.456-4.83c7.085-1.29 14.1-2.85 21.125-4.44 10.699-2.42 21.426-4.63 32.187-6.75a1272.05 1272.05 0 0 0 34.57-7.3c9.548-2.15 19.138-4.06 28.74-5.95a944.13 944.13 0 0 0 24.69-5.25c10.737-2.43 21.508-4.62 32.309-6.75 8.258-1.64 16.48-3.39 24.691-5.25 10.737-2.43 21.508-4.62 32.309-6.75 8.258-1.64 16.48-3.39 24.691-5.25 10.737-2.43 21.508-4.62 32.309-6.75 8.258-1.64 16.48-3.39 24.691-5.25 10.737-2.43 21.508-4.62 32.309-6.75 8.258-1.64 16.48-3.39 24.691-5.25 9.474-2.14 18.97-4.12 28.5-6 9.425-1.86 18.815-3.82 28.185-5.94 10.39-2.35 20.81-4.49 31.25-6.56 11.6-2.3 23.17-4.66 34.73-7.16 9.04-1.96 18.09-3.87 27.14-5.77 15.57-3.26 31.12-6.61 46.66-10.03 20.33-4.47 20.33-4.47 28.22-5.85 7.09-1.29 14.1-2.85 21.13-4.44 10.7-2.42 21.42-4.63 32.19-6.75 11.56-2.28 23.07-4.7 34.57-7.3 9.54-2.15 19.13-4.06 28.73-5.95 8.26-1.64 16.48-3.39 24.7-5.25 10.73-2.43 21.5-4.62 32.3-6.75 8.26-1.64 16.48-3.39 24.7-5.25 10.73-2.43 21.5-4.62 32.3-6.75 8.26-1.64 16.48-3.39 24.7-5.25 10.73-2.43 21.5-4.62 32.3-6.75 8.26-1.64 16.48-3.39 24.7-5.25 10.73-2.43 21.5-4.62 32.3-6.75 8.26-1.64 16.48-3.39 24.7-5.25 9.47-2.14 18.96-4.12 28.5-6 9.42-1.86 18.81-3.82 28.18-5.94 10.39-2.35 20.81-4.49 31.25-6.56 11.6-2.3 23.17-4.66 34.73-7.16 9.04-1.96 18.09-3.87 27.14-5.77 15.57-3.26 31.12-6.61 46.66-10.03 20.33-4.47 20.33-4.47 28.22-5.85 7.09-1.29 14.1-2.85 21.13-4.44 10.7-2.42 21.42-4.63 32.19-6.75 11.56-2.28 23.07-4.7 34.57-7.3 9.54-2.15 19.13-4.06 28.73-5.95 8.26-1.64 16.48-3.39 24.7-5.25 10.73-2.43 21.5-4.62 32.3-6.75 8.26-1.64 16.48-3.39 24.7-5.25 10.73-2.43 21.5-4.62 32.3-6.75 8.26-1.64 16.48-3.39 24.7-5.25 10.73-2.43 21.5-4.62 32.3-6.75 8.26-1.64 16.48-3.39 24.7-5.25 10.73-2.43 21.5-4.62 32.3-6.75 8.26-1.64 16.48-3.39 24.7-5.25 9.47-2.14 18.96-4.12 28.5-6 9.42-1.86 18.81-3.82 28.18-5.94 10.39-2.35 20.81-4.49 31.25-6.56 12.75-2.52 25.47-5.16 38.17-7.91 7.06-1.52 14.14-3.02 21.21-4.5 3.24-.68 6.47-1.37 9.7-2.06 7.24-1.53 14.47-3.04 21.74-4.43 3.06-.59 6.13-1.2 9.19-1.8 1.44-.28 2.88-.55 4.32-.81 1.99-.37 3.98-.76 5.96-1.16 1.68-.31 1.68-.31 3.39-.63 4.82-2 6.32-5.89 8.3-10.5 2.41-6.86 4.49-13.51 5.59-20.7.18-1.15.36-2.3.55-3.48 1.41-9.21 1.81-17.04-.35-26.1-.19-.82-.37-1.63-.57-2.47-.4-1.72-.8-3.44-1.21-5.15-.6-2.57-1.19-5.13-1.79-7.7-3.46-14.89-7.36-29.58-12.32-44.05-1.61-4.83-2.95-9.72-4.31-14.614-1.63-5.813-3.32-11.53-5.44-17.187-2.79-7.506-4.84-15.194-6.97-22.909-1.71-6.18-3.44-12.343-5.34-18.466l-1.11-3.57c-1.12-3.371-1.12-3.371-2.66-6.801-1.46-3.453-2.51-6.825-3.48-10.442-1-3.675-2.05-7.267-3.41-10.819-1.47-3.88-2.82-7.795-4.13-11.731-9.97-29.748-21.89-58.191-35.48-86.454-.95-1.992-1.91-3.984-2.86-5.977-10.36-21.666-20.74-43.326-32.39-64.328-4.5-8.178-8.65-16.516-12.8-24.878-15.19-30.606-33.19-57.933-53.98-85.038a702.169 702.169 0 0 1-12.89-17.4c-.8-1.114-.8-1.114-1.62-2.25-1.02-1.416-2.03-2.832-3.05-4.248a353.19 353.19 0 0 0-18.71-23.783c-2.45-2.862-4.82-5.782-7.18-8.719-4.44-5.44-9.14-10.617-13.93-15.745-1.7-1.822-3.39-3.652-5.08-5.481-6.95-7.486-14.01-14.838-21.31-21.988-2.89-2.847-5.66-5.731-8.29-8.821-4.35-4.998-9.01-9.664-13.7-14.344-.93-.926-1.85-1.853-2.81-2.807-1.95-1.949-3.89-3.896-5.85-5.842-2.47-2.473-4.95-4.95-7.42-7.429-2.39-2.393-4.78-4.782-7.17-7.172-.88-.879-1.76-1.758-2.66-2.664-4.41-4.388-8.87-8.643-13.59-12.687-2.57-2.208-5.03-4.523-7.51-6.832-4.62-4.27-9.38-8.307-14.28-12.254-3.29-2.689-6.5-5.463-9.72-8.246-6.34-5.478-12.86-10.699-19.5-15.822a939.674 939.674 0 0 1-4.82-3.756c-20.7-16.1-42.44-30.356-64.63-44.284-10.18-6.397-20.25-12.844-29.97-19.912-20.87-15.133-43.47-27.428-66.26-39.351l-2.3-1.204c-5-2.617-10-5.22-15.01-7.811-1.63-.844-3.26-1.691-4.89-2.541-21.54-11.215-43.78-20.172-66.62-28.382-1.2-.432-2.39-.865-3.63-1.311-43.52-15.704-85.86-26.466-131.55-33.751-.91-.145-1.81-.29-2.73-.44-32.54-5.231-65.22-7.885-98.06-10.319-4.42-.332-8.84-.684-13.26-1.037-40.97-2.828-85.85 2.316-124.95 14.796Z" style="fill: rgb(98, 29, 12); fill-opacity: 1;" class="fills"/></g><g style="opacity: 1;"><defs><filter id="b" x="-.006" y="-.009" width="1.012" height="1.019" filterUnits="objectBoundingBox" color-interpolation-filters="sRGB"><feFlood flood-opacity="0" result="BackgroundImageFix"/><feBlend in="SourceGraphic" in2="BackgroundImageFix" result="shape"/><feGaussianBlur stdDeviation="1" result="filter_dd3710d9-d219-8079-8005-31a3eaf6b323"/></filter><filter id="c" x="-.006" y="-.009" width="1.012" height="1.019" filterUnits="objectBoundingBox" color-interpolation-filters="sRGB"><feFlood flood-opacity="0" result="BackgroundImageFix"/><feBlend in="SourceGraphic" in2="BackgroundImageFix" result="shape"/><feGaussianBlur stdDeviation="1" result="filter_dd3710d9-d219-8079-8005-31a3eaf6b323"/></filter></defs><path d="m2108 664 3.218.602c32.464 6.169 62.219 16.359 91.777 30.921 2.728 1.341 5.464 2.664 8.204 3.981 29.424 14.265 58.173 31.704 81.801 54.496l1.977 1.855c8.053 7.741 14.665 16.924 21.523 25.707l1.891 2.42 1.765 2.272 1.588 2.041C2323 790 2323 790 2324 792l3.949-.438c42.735-4.349 83.241.609 125.051 9.438l3.762.79c13.961 2.971 27.578 6.562 41.097 11.147 2.904.983 5.814 1.948 8.726 2.91 17.844 5.907 35.245 12.468 52.415 20.153l2.405 1.064c11.62 5.17 22.719 11.245 33.833 17.415a663.1 663.1 0 0 0 8.047 4.349c16.304 8.725 30.755 18.877 44.948 30.704 2.424 2.013 4.878 3.988 7.33 5.968 10.613 8.711 20.882 17.632 30.437 27.5l2.488 2.484c25.235 25.274 44.211 59.238 59.435 91.286 1.282 2.654 2.612 5.283 3.94 7.914 17.102 34.208 25.014 70.058 24.137 108.316l-.054 2.568c-.525 22.383-2.763 44.33-7.008 66.307l-.394 2.044c-2.161 11.128-2.161 11.128-3.632 14.789-1.097 2.345-1.097 2.345-.912 5.292l2.492 1.25c7.554 3.907 14.044 8.166 20.508 13.75l2.078 1.676c22.549 18.598 38.047 50.557 40.922 79.324 1.79 25.45-4.475 48.54-14 72l3.567-.875c24.826-5.737 53.22-5.491 75.761 7.844 26.483 17.046 42.567 47.985 49.341 78.038.851 3.985 1.609 7.983 2.331 11.993l.692 3.781c1.313 8.6 1.538 17.157 1.621 25.844l.053 3.299c-.016 18.362-3.785 36.344-7.962 54.145a1436.54 1436.54 0 0 0-2.113 9.185c-3.858 16.781-8.063 33.564-14.853 49.434l-1.262 2.98c-11.711 27.088-25.998 50.665-47.113 71.395l-2.862 2.833A3214.268 3214.268 0 0 1 2866 1719l-2 2c.048 2.001.048 2.001.574 4.27l.521 2.657.593 2.886c.386 2.029.77 4.059 1.152 6.089l.593 3.117.567 2.981.493 2.579c2.012 10.876 2.843 21.698 2.98 32.749.018 1.38.043 2.761.077 4.141.329 15.221-3.768 26.788-13.55 38.531l-2.25 2.875c-8.538 6.598-18.999 8.17-29.32 10.241-5.266 1.087-9.93 2.384-15.43 3.884-5.563 1.25-4.14 1.05-11.5 2.5-9 1.5-17.163 2.789-25.297 4.546a3124.194 3124.194 0 0 0-16.925 3.58c-4.441.946-8.885 1.88-13.328 2.815-7.67 1.616-15.338 3.24-23.005 4.87a21564.98 21564.98 0 0 1-33.599 7.111c-17.926 3.784-35.85 7.576-53.773 11.374a61053.36 61053.36 0 0 1-67.128 14.181l-5.104 1.075-20.246 4.267c-10.984 2.314-21.967 4.63-32.951 6.948A137351.768 137351.768 0 0 1 2352.5 1934c-58.34 12.24-116.674 24.507-175 36.813l-41.145 8.679-2.548.538a145765.49 145765.49 0 0 1-113.565 23.897l-41.433 8.706-2.454.515c-39.766 8.356-79.528 16.726-119.291 25.098l-8.068 1.699-48.574 10.228a1872865.029 1872865.029 0 0 1-131.29 27.641l-26.747 5.631-5.348 1.126c-24.83 5.227-49.66 10.456-74.49 15.685-15.921 3.354-31.842 6.707-47.764 10.059l-5.316 1.12a194438.01 194438.01 0 0 1-128.619 27.045l-2.848.598-45.67 9.584a185853.887 185853.887 0 0 0-191.168 40.227l-17.742 3.743-5.079 1.071a290755.254 290755.254 0 0 1-139.714 29.431l-44.341 9.334-4.555.959-10.641 2.237a2919.55 2919.55 0 0 0-17.056 3.623l-2.646.57c-1.516.327-3.032.657-4.546.992-52.33 11.248-98.132-9.282-140.875-36.802-11.255-7.366-21.975-15.039-31.967-24.047l-2.582-2.219c-5.308-4.614-10.096-9.564-14.81-14.768-3.485-3.839-7.09-7.513-10.795-11.138-4.573-4.496-8.682-9.212-12.676-14.238-2.087-2.575-4.266-5.013-6.512-7.449-20.026-22.084-34.655-48.141-44.625-76.188l-.72-1.999c-3.329-9.487-5.298-19.324-7.233-29.171a670.136 670.136 0 0 0-.845-4.221c-1.601-7.937-2.535-15.103-1.19-23.175.222-2.529.222-2.529-1.497-4.503-2.066-1.83-4.244-3.364-6.515-4.931-6.924-5.8-13.296-12.191-19.687-18.562l-2.449-2.435c-4.271-4.282-8.386-8.638-12.329-13.223-2.082-2.415-4.246-4.751-6.41-7.092-25.868-28.443-44.425-61.865-62.91-95.334-3.248-5.867-6.539-11.69-10.027-17.416-14.611-24.089-25.583-49.096-34.188-75.938l-.952-2.945c-5.656-17.722-9.448-35.827-13.048-54.055l-.406-2.027c-1.856-9.307-3.274-18.586-4.219-28.035l-.367-3.448c-4.268-41.124-1.95-81.136 6.992-121.49l.427-1.936C465.682 1482.128 484.692 1422.035 523 1373l2.301-2.945C567.428 1317.526 635.544 1279.961 701 1266l-1.574-3.156c-12.368-25.237-18.122-51.518-9.43-78.992 13.425-37.628 43.746-65.67 79.254-82.586 16.343-7.521 33.263-13.088 50.75-17.266l2.858-.685c10.163-2.315 19.789-3.537 30.197-2.885 15.294 1.708 15.294 1.708 29.611-2.035 4.251-4.28 6.641-9.427 9.075-14.881 1.999-3.991 4.808-7.072 7.822-10.327 1.08-1.208 2.159-2.418 3.238-3.628l1.604-1.778c2.661-2.971 5.253-6 7.845-9.031l1.51-1.759a472.962 472.962 0 0 0 8.803-10.616c4.034-4.972 8.302-9.673 12.664-14.355 1.963-2.111 3.841-4.276 5.707-6.473 5.224-5.994 10.916-11.546 16.545-17.156 1.954-1.949 3.903-3.903 5.851-5.858 5.425-5.428 10.83-10.792 16.682-15.763 4.708-4.191 9.062-8.784 13.488-13.27 11.564-11.721 11.564-11.721 17.788-17.038 2.422-2.069 4.748-4.237 7.087-6.4 4.181-3.814 8.477-7.39 12.918-10.894 8.636-6.916 16.866-14.247 24.895-21.856 5.269-4.992 10.588-9.773 16.273-14.292a200.776 200.776 0 0 0 4.953-4.071c9.041-7.655 18.829-14.249 28.586-20.949l2.623-1.806c5.442-3.742 10.9-7.46 16.371-11.161a4227.6 4227.6 0 0 0 6.207-4.207c28.05-19.038 57.021-36.895 87.545-51.717a605.846 605.846 0 0 0 7.848-3.953c17.561-8.931 35.379-17.212 53.406-25.156l1.99-.877c31.517-13.856 63.821-24.995 97.01-34.123l3.613-.995c54.575-14.802 110.939-21.248 167.387-21.193l3.738.003c19.903.033 39.681.459 59.527 1.976 3.027.231 6.054.456 9.081.682 36.227 2.727 72.261 6.61 108.307 11.11 8.181 1.02 16.364 2.022 24.547 3.025 2.596.32 5.191.644 7.787.97l4.63.574 2.071.264c5.145.644 5.145.644 10.312.584 1.876-1.941 1.876-1.941 3.438-4.625 10.506-15.343 25.836-29.101 44.507-32.988 14.755-1.868 27.962.766 40.055 9.613 7.866 6.392 14.896 13.786 22 21 3.339-1.556 6.275-3.483 9.313-5.563C1939.886 682.356 1983.987 668.16 2032 662l2.711-.348c23.783-2.593 49.83-2.225 73.289 2.348Zm-312 235-3.687 1.16c-30.424 9.612-59.487 21.287-87.335 36.958-5.915 3.322-11.897 6.501-17.915 9.632l-2.907 1.514a1838.165 1838.165 0 0 1-15.746 8.084c-20.656 10.521-40.491 22.203-59.841 34.963-3.159 2.077-6.327 4.141-9.495 6.205-17.753 11.574-35.265 23.33-52.297 35.949-11.09 8.215-22.282 16.24-33.714 23.972-17.117 11.59-34.255 23.411-48.743 38.239a98.993 98.993 0 0 1-6.132 5.636c-3.708 3.163-7.09 6.589-10.5 10.063a163.96 163.96 0 0 1-15.071 13.512c-2.65 2.139-5.166 4.378-7.679 6.675-4.007 3.646-8.138 7.065-12.387 10.422-12.151 9.602-24.337 19.38-35.074 30.567a104.657 104.657 0 0 1-5.917 5.391c-5.031 4.388-9.722 9.107-14.421 13.844-1.614 1.626-3.23 3.249-4.848 4.872-3.433 3.444-6.862 6.893-10.291 10.342a12285.36 12285.36 0 0 1-11.943 11.999c-1.58 1.586-3.156 3.175-4.733 4.764-4.736 4.761-9.504 9.424-14.628 13.77-4.994 4.32-9.387 9.183-13.688 14.178a316.549 316.549 0 0 1-5.962 6.569 299.44 299.44 0 0 0-13.612 15.751c-3.392 4.137-6.902 8.166-10.417 12.197a844.46 844.46 0 0 0-8.201 9.526c-4.99 5.899-9.986 11.646-15.586 16.988-1.925 1.949-3.718 3.939-5.511 6.008-3.682 4.244-7.529 8.31-11.406 12.375-15.017 15.882-28.146 32.63-40.387 50.733-5.154 7.576-10.678 14.83-16.305 22.058-19.775 25.429-37.978 51.065-53.913 79.092a952.623 952.623 0 0 1-7.02 12.055l-1.197 2.026-2.33 3.944a2299.68 2299.68 0 0 0-3.571 6.076 1822.668 1822.668 0 0 1-11.801 19.881c-4.489 7.441-8.9 14.917-13.215 22.461-9.22 16.12-18.725 32.069-29.226 47.393-20.415 29.873-34.998 64.244-49.948 97.089-2.507 5.491-5.051 10.965-7.587 16.442-3.096 6.688-6.162 13.386-9.139 20.128-6.756 15.27-14.391 30.119-21.963 44.997-8.861 17.454-16.693 35.271-23.961 53.438-15.014 37.485-31.092 76.811-55.75 109.062-.976 1.305-1.951 2.612-2.926 3.918a401.146 401.146 0 0 1-20.086 24.656c-2.611 2.967-5.093 6.018-7.55 9.114-3.766 4.66-7.858 8.855-12.135 13.037-2.774 2.716-5.391 5.472-7.865 8.463C801.956 2028.072 747.414 2048.27 708 2053c-3.757.199-7.489.195-11.25.125l-2.871-.027A876.578 876.578 0 0 1 687 2053c5.599 14.891 13.995 27.305 24.427 39.187 2.081 2.398 4.043 4.884 6.011 7.376 8.46 10.354 17.923 19.926 27.457 29.289 1.895 1.934 3.59 3.921 5.293 6.023 10.537 12.171 25.288 20.726 38.812 29.125l3.061 1.906c10.261 6.358 20.532 12.707 31.439 17.907l1.936.93c8.375 3.807 16.661 4.594 25.752 4.882l3.069.108c2.008.068 4.016.13 6.025.188 2.291.067 4.58.152 6.87.243 5.376.133 10.251-.108 15.477-1.414a552.098 552.098 0 0 1 16.922-3.766l2.595-.539c1.794-.373 3.588-.746 5.382-1.117 14.112-2.927 28.212-5.9 42.285-9.015 11.496-2.544 23.018-4.902 34.569-7.178 10.163-2.014 20.258-4.27 30.349-6.612a504.958 504.958 0 0 1 23.457-4.835c7.085-1.291 14.1-2.849 21.125-4.438 10.699-2.417 21.426-4.628 32.187-6.75a1253.325 1253.325 0 0 0 34.57-7.301c9.548-2.15 19.138-4.058 28.74-5.949a940.044 940.044 0 0 0 24.69-5.25c10.737-2.428 21.508-4.623 32.309-6.75a940.116 940.116 0 0 0 24.691-5.25c10.737-2.428 21.508-4.623 32.309-6.75a940.116 940.116 0 0 0 24.691-5.25c10.737-2.428 21.508-4.623 32.309-6.75a940.116 940.116 0 0 0 24.691-5.25c10.737-2.428 21.508-4.623 32.309-6.75a940.116 940.116 0 0 0 24.691-5.25c9.474-2.143 18.97-4.123 28.5-6 9.426-1.856 18.818-3.814 28.188-5.937 10.386-2.351 20.803-4.497 31.25-6.563 11.595-2.295 23.169-4.661 34.723-7.162 9.04-1.957 18.09-3.866 27.143-5.763a4670.675 4670.675 0 0 0 46.665-10.032c20.324-4.469 20.324-4.469 28.219-5.855 7.086-1.287 14.101-2.849 21.125-4.438 10.699-2.417 21.426-4.628 32.187-6.75a1253.325 1253.325 0 0 0 34.57-7.301c9.548-2.15 19.138-4.058 28.74-5.949a940.044 940.044 0 0 0 24.69-5.25c10.737-2.428 21.508-4.623 32.309-6.75a940.116 940.116 0 0 0 24.691-5.25c10.737-2.428 21.508-4.623 32.309-6.75a940.116 940.116 0 0 0 24.691-5.25c10.737-2.428 21.508-4.623 32.309-6.75a940.116 940.116 0 0 0 24.691-5.25c10.737-2.428 21.508-4.623 32.309-6.75a940.116 940.116 0 0 0 24.691-5.25c9.474-2.143 18.97-4.123 28.5-6 9.426-1.856 18.818-3.814 28.188-5.937 10.386-2.351 20.803-4.497 31.25-6.563 11.595-2.295 23.169-4.661 34.723-7.162 9.04-1.957 18.09-3.866 27.143-5.763a4670.675 4670.675 0 0 0 46.665-10.032c20.324-4.469 20.324-4.469 28.219-5.855 7.086-1.287 14.101-2.849 21.125-4.438 10.699-2.417 21.426-4.628 32.187-6.75a1253.325 1253.325 0 0 0 34.57-7.301c9.548-2.15 19.138-4.058 28.74-5.949a940.044 940.044 0 0 0 24.69-5.25c10.737-2.428 21.508-4.623 32.309-6.75a940.116 940.116 0 0 0 24.691-5.25c10.737-2.428 21.508-4.623 32.309-6.75a940.116 940.116 0 0 0 24.691-5.25c10.737-2.428 21.508-4.623 32.309-6.75a940.116 940.116 0 0 0 24.691-5.25c10.737-2.428 21.508-4.623 32.309-6.75a940.116 940.116 0 0 0 24.691-5.25c9.474-2.143 18.97-4.123 28.5-6 9.427-1.856 18.818-3.814 28.188-5.937 10.386-2.351 20.803-4.497 31.25-6.563a2204.81 2204.81 0 0 0 38.164-7.906 3650.064 3650.064 0 0 1 21.214-4.507c3.235-.679 6.469-1.363 9.702-2.051 7.235-1.536 14.47-3.05 21.734-4.438 3.067-.587 6.13-1.192 9.193-1.799 1.439-.28 2.881-.551 4.324-.812 1.99-.362 3.974-.756 5.958-1.151l3.393-.639c4.813-2 6.319-5.888 8.294-10.494 2.408-6.865 4.488-13.509 5.586-20.703l.559-3.48c1.407-9.208 1.807-17.039-.352-26.102l-.569-2.464c-.4-1.719-.802-3.438-1.208-5.156-.606-2.563-1.2-5.128-1.791-7.694-3.462-14.898-7.369-29.585-12.322-44.057-1.608-4.821-2.95-9.716-4.317-14.609-1.626-5.814-3.315-11.531-5.437-17.188-2.786-7.506-4.842-15.194-6.968-22.909-1.705-6.18-3.442-12.343-5.345-18.466l-1.109-3.57c-1.116-3.371-1.116-3.371-2.657-6.801-1.462-3.452-2.507-6.825-3.484-10.441-.994-3.676-2.043-7.268-3.408-10.82-1.469-3.88-2.816-7.794-4.123-11.731-9.97-29.747-21.898-58.191-35.481-86.454-.956-1.991-1.909-3.984-2.862-5.977-10.356-21.666-20.738-43.326-32.394-64.328-4.501-8.178-8.651-16.516-12.794-24.878-15.198-30.606-33.194-57.932-53.98-85.038a711.922 711.922 0 0 1-12.895-17.399l-1.617-2.251-3.05-4.248a355.095 355.095 0 0 0-18.708-23.783c-2.452-2.862-4.825-5.782-7.188-8.718-4.436-5.44-9.131-10.617-13.921-15.746-1.7-1.822-3.393-3.652-5.087-5.481-6.951-7.486-14.007-14.838-21.305-21.988-2.89-2.847-5.658-5.731-8.289-8.82-4.353-4.999-9.016-9.665-13.706-14.344l-2.805-2.808a6440.38 6440.38 0 0 0-5.847-5.842 4334.39 4334.39 0 0 1-7.426-7.429c-2.388-2.393-4.781-4.782-7.172-7.171l-2.659-2.665c-4.404-4.388-8.865-8.642-13.588-12.687-2.568-2.208-5.029-4.523-7.507-6.832-4.622-4.27-9.382-8.307-14.286-12.254-3.292-2.689-6.502-5.463-9.714-8.246-6.348-5.478-12.867-10.699-19.503-15.822-1.612-1.246-3.217-2.501-4.822-3.756-20.696-16.1-42.442-30.356-64.631-44.284-10.177-6.397-20.245-12.843-29.97-19.911-20.864-15.134-43.464-27.429-66.262-39.352l-2.298-1.204c-4.996-2.616-9.998-5.22-15.007-7.81-1.632-.845-3.262-1.692-4.892-2.541-21.543-11.216-43.775-20.173-66.615-28.383l-3.633-1.311C2123.04 914.047 2080.695 903.285 2035 896l-2.728-.439c-32.534-5.232-65.221-7.885-98.06-10.32-4.42-.332-8.837-.683-13.255-1.037-40.971-2.828-85.85 2.316-124.957 14.796Z" filter="url(#b)" style="fill: rgb(98, 29, 12); fill-opacity: 1;" class="fills"/><g class="strokes" filter="url(#c)"><path d="m2108 664 3.218.602c32.464 6.169 62.219 16.359 91.777 30.921 2.728 1.341 5.464 2.664 8.204 3.981 29.424 14.265 58.173 31.704 81.801 54.496l1.977 1.855c8.053 7.741 14.665 16.924 21.523 25.707l1.891 2.42 1.765 2.272 1.588 2.041C2323 790 2323 790 2324 792l3.949-.438c42.735-4.349 83.241.609 125.051 9.438l3.762.79c13.961 2.971 27.578 6.562 41.097 11.147 2.904.983 5.814 1.948 8.726 2.91 17.844 5.907 35.245 12.468 52.415 20.153l2.405 1.064c11.62 5.17 22.719 11.245 33.833 17.415a663.1 663.1 0 0 0 8.047 4.349c16.304 8.725 30.755 18.877 44.948 30.704 2.424 2.013 4.878 3.988 7.33 5.968 10.613 8.711 20.882 17.632 30.437 27.5l2.488 2.484c25.235 25.274 44.211 59.238 59.435 91.286 1.282 2.654 2.612 5.283 3.94 7.914 17.102 34.208 25.014 70.058 24.137 108.316l-.054 2.568c-.525 22.383-2.763 44.33-7.008 66.307l-.394 2.044c-2.161 11.128-2.161 11.128-3.632 14.789-1.097 2.345-1.097 2.345-.912 5.292l2.492 1.25c7.554 3.907 14.044 8.166 20.508 13.75l2.078 1.676c22.549 18.598 38.047 50.557 40.922 79.324 1.79 25.45-4.475 48.54-14 72l3.567-.875c24.826-5.737 53.22-5.491 75.761 7.844 26.483 17.046 42.567 47.985 49.341 78.038.851 3.985 1.609 7.983 2.331 11.993l.692 3.781c1.313 8.6 1.538 17.157 1.621 25.844l.053 3.299c-.016 18.362-3.785 36.344-7.962 54.145a1436.54 1436.54 0 0 0-2.113 9.185c-3.858 16.781-8.063 33.564-14.853 49.434l-1.262 2.98c-11.711 27.088-25.998 50.665-47.113 71.395l-2.862 2.833A3214.268 3214.268 0 0 1 2866 1719l-2 2c.048 2.001.048 2.001.574 4.27l.521 2.657.593 2.886c.386 2.029.77 4.059 1.152 6.089l.593 3.117.567 2.981.493 2.579c2.012 10.876 2.843 21.698 2.98 32.749.018 1.38.043 2.761.077 4.141.329 15.221-3.768 26.788-13.55 38.531l-2.25 2.875c-8.538 6.598-18.999 8.17-29.32 10.241-5.266 1.087-9.93 2.384-15.43 3.884-5.563 1.25-4.14 1.05-11.5 2.5-9 1.5-17.163 2.789-25.297 4.546a3124.194 3124.194 0 0 0-16.925 3.58c-4.441.946-8.885 1.88-13.328 2.815-7.67 1.616-15.338 3.24-23.005 4.87a21564.98 21564.98 0 0 1-33.599 7.111c-17.926 3.784-35.85 7.576-53.773 11.374a61053.36 61053.36 0 0 1-67.128 14.181l-5.104 1.075-20.246 4.267c-10.984 2.314-21.967 4.63-32.951 6.948A137351.768 137351.768 0 0 1 2352.5 1934c-58.34 12.24-116.674 24.507-175 36.813l-41.145 8.679-2.548.538a145765.49 145765.49 0 0 1-113.565 23.897l-41.433 8.706-2.454.515c-39.766 8.356-79.528 16.726-119.291 25.098l-8.068 1.699-48.574 10.228a1872865.029 1872865.029 0 0 1-131.29 27.641l-26.747 5.631-5.348 1.126c-24.83 5.227-49.66 10.456-74.49 15.685-15.921 3.354-31.842 6.707-47.764 10.059l-5.316 1.12a194438.01 194438.01 0 0 1-128.619 27.045l-2.848.598-45.67 9.584a185853.887 185853.887 0 0 0-191.168 40.227l-17.742 3.743-5.079 1.071a290755.254 290755.254 0 0 1-139.714 29.431l-44.341 9.334-4.555.959-10.641 2.237a2919.55 2919.55 0 0 0-17.056 3.623l-2.646.57c-1.516.327-3.032.657-4.546.992-52.33 11.248-98.132-9.282-140.875-36.802-11.255-7.366-21.975-15.039-31.967-24.047l-2.582-2.219c-5.308-4.614-10.096-9.564-14.81-14.768-3.485-3.839-7.09-7.513-10.795-11.138-4.573-4.496-8.682-9.212-12.676-14.238-2.087-2.575-4.266-5.013-6.512-7.449-20.026-22.084-34.655-48.141-44.625-76.188l-.72-1.999c-3.329-9.487-5.298-19.324-7.233-29.171a670.136 670.136 0 0 0-.845-4.221c-1.601-7.937-2.535-15.103-1.19-23.175.222-2.529.222-2.529-1.497-4.503-2.066-1.83-4.244-3.364-6.515-4.931-6.924-5.8-13.296-12.191-19.687-18.562l-2.449-2.435c-4.271-4.282-8.386-8.638-12.329-13.223-2.082-2.415-4.246-4.751-6.41-7.092-25.868-28.443-44.425-61.865-62.91-95.334-3.248-5.867-6.539-11.69-10.027-17.416-14.611-24.089-25.583-49.096-34.188-75.938l-.952-2.945c-5.656-17.722-9.448-35.827-13.048-54.055l-.406-2.027c-1.856-9.307-3.274-18.586-4.219-28.035l-.367-3.448c-4.268-41.124-1.95-81.136 6.992-121.49l.427-1.936C465.682 1482.128 484.692 1422.035 523 1373l2.301-2.945C567.428 1317.526 635.544 1279.961 701 1266l-1.574-3.156c-12.368-25.237-18.122-51.518-9.43-78.992 13.425-37.628 43.746-65.67 79.254-82.586 16.343-7.521 33.263-13.088 50.75-17.266l2.858-.685c10.163-2.315 19.789-3.537 30.197-2.885 15.294 1.708 15.294 1.708 29.611-2.035 4.251-4.28 6.641-9.427 9.075-14.881 1.999-3.991 4.808-7.072 7.822-10.327 1.08-1.208 2.159-2.418 3.238-3.628l1.604-1.778c2.661-2.971 5.253-6 7.845-9.031l1.51-1.759a472.962 472.962 0 0 0 8.803-10.616c4.034-4.972 8.302-9.673 12.664-14.355 1.963-2.111 3.841-4.276 5.707-6.473 5.224-5.994 10.916-11.546 16.545-17.156 1.954-1.949 3.903-3.903 5.851-5.858 5.425-5.428 10.83-10.792 16.682-15.763 4.708-4.191 9.062-8.784 13.488-13.27 11.564-11.721 11.564-11.721 17.788-17.038 2.422-2.069 4.748-4.237 7.087-6.4 4.181-3.814 8.477-7.39 12.918-10.894 8.636-6.916 16.866-14.247 24.895-21.856 5.269-4.992 10.588-9.773 16.273-14.292a200.776 200.776 0 0 0 4.953-4.071c9.041-7.655 18.829-14.249 28.586-20.949l2.623-1.806c5.442-3.742 10.9-7.46 16.371-11.161a4227.6 4227.6 0 0 0 6.207-4.207c28.05-19.038 57.021-36.895 87.545-51.717a605.846 605.846 0 0 0 7.848-3.953c17.561-8.931 35.379-17.212 53.406-25.156l1.99-.877c31.517-13.856 63.821-24.995 97.01-34.123l3.613-.995c54.575-14.802 110.939-21.248 167.387-21.193l3.738.003c19.903.033 39.681.459 59.527 1.976 3.027.231 6.054.456 9.081.682 36.227 2.727 72.261 6.61 108.307 11.11 8.181 1.02 16.364 2.022 24.547 3.025 2.596.32 5.191.644 7.787.97l4.63.574 2.071.264c5.145.644 5.145.644 10.312.584 1.876-1.941 1.876-1.941 3.438-4.625 10.506-15.343 25.836-29.101 44.507-32.988 14.755-1.868 27.962.766 40.055 9.613 7.866 6.392 14.896 13.786 22 21 3.339-1.556 6.275-3.483 9.313-5.563C1939.886 682.356 1983.987 668.16 2032 662l2.711-.348c23.783-2.593 49.83-2.225 73.289 2.348Zm-312 235-3.687 1.16c-30.424 9.612-59.487 21.287-87.335 36.958-5.915 3.322-11.897 6.501-17.915 9.632l-2.907 1.514a1838.165 1838.165 0 0 1-15.746 8.084c-20.656 10.521-40.491 22.203-59.841 34.963-3.159 2.077-6.327 4.141-9.495 6.205-17.753 11.574-35.265 23.33-52.297 35.949-11.09 8.215-22.282 16.24-33.714 23.972-17.117 11.59-34.255 23.411-48.743 38.239a98.993 98.993 0 0 1-6.132 5.636c-3.708 3.163-7.09 6.589-10.5 10.063a163.96 163.96 0 0 1-15.071 13.512c-2.65 2.139-5.166 4.378-7.679 6.675-4.007 3.646-8.138 7.065-12.387 10.422-12.151 9.602-24.337 19.38-35.074 30.567a104.657 104.657 0 0 1-5.917 5.391c-5.031 4.388-9.722 9.107-14.421 13.844-1.614 1.626-3.23 3.249-4.848 4.872-3.433 3.444-6.862 6.893-10.291 10.342a12285.36 12285.36 0 0 1-11.943 11.999c-1.58 1.586-3.156 3.175-4.733 4.764-4.736 4.761-9.504 9.424-14.628 13.77-4.994 4.32-9.387 9.183-13.688 14.178a316.549 316.549 0 0 1-5.962 6.569 299.44 299.44 0 0 0-13.612 15.751c-3.392 4.137-6.902 8.166-10.417 12.197a844.46 844.46 0 0 0-8.201 9.526c-4.99 5.899-9.986 11.646-15.586 16.988-1.925 1.949-3.718 3.939-5.511 6.008-3.682 4.244-7.529 8.31-11.406 12.375-15.017 15.882-28.146 32.63-40.387 50.733-5.154 7.576-10.678 14.83-16.305 22.058-19.775 25.429-37.978 51.065-53.913 79.092a952.623 952.623 0 0 1-7.02 12.055l-1.197 2.026-2.33 3.944a2299.68 2299.68 0 0 0-3.571 6.076 1822.668 1822.668 0 0 1-11.801 19.881c-4.489 7.441-8.9 14.917-13.215 22.461-9.22 16.12-18.725 32.069-29.226 47.393-20.415 29.873-34.998 64.244-49.948 97.089-2.507 5.491-5.051 10.965-7.587 16.442-3.096 6.688-6.162 13.386-9.139 20.128-6.756 15.27-14.391 30.119-21.963 44.997-8.861 17.454-16.693 35.271-23.961 53.438-15.014 37.485-31.092 76.811-55.75 109.062-.976 1.305-1.951 2.612-2.926 3.918a401.146 401.146 0 0 1-20.086 24.656c-2.611 2.967-5.093 6.018-7.55 9.114-3.766 4.66-7.858 8.855-12.135 13.037-2.774 2.716-5.391 5.472-7.865 8.463C801.956 2028.072 747.414 2048.27 708 2053c-3.757.199-7.489.195-11.25.125l-2.871-.027A876.578 876.578 0 0 1 687 2053c5.599 14.891 13.995 27.305 24.427 39.187 2.081 2.398 4.043 4.884 6.011 7.376 8.46 10.354 17.923 19.926 27.457 29.289 1.895 1.934 3.59 3.921 5.293 6.023 10.537 12.171 25.288 20.726 38.812 29.125l3.061 1.906c10.261 6.358 20.532 12.707 31.439 17.907l1.936.93c8.375 3.807 16.661 4.594 25.752 4.882l3.069.108c2.008.068 4.016.13 6.025.188 2.291.067 4.58.152 6.87.243 5.376.133 10.251-.108 15.477-1.414a552.098 552.098 0 0 1 16.922-3.766l2.595-.539c1.794-.373 3.588-.746 5.382-1.117 14.112-2.927 28.212-5.9 42.285-9.015 11.496-2.544 23.018-4.902 34.569-7.178 10.163-2.014 20.258-4.27 30.349-6.612a504.958 504.958 0 0 1 23.457-4.835c7.085-1.291 14.1-2.849 21.125-4.438 10.699-2.417 21.426-4.628 32.187-6.75a1253.325 1253.325 0 0 0 34.57-7.301c9.548-2.15 19.138-4.058 28.74-5.949a940.044 940.044 0 0 0 24.69-5.25c10.737-2.428 21.508-4.623 32.309-6.75a940.116 940.116 0 0 0 24.691-5.25c10.737-2.428 21.508-4.623 32.309-6.75a940.116 940.116 0 0 0 24.691-5.25c10.737-2.428 21.508-4.623 32.309-6.75a940.116 940.116 0 0 0 24.691-5.25c10.737-2.428 21.508-4.623 32.309-6.75a940.116 940.116 0 0 0 24.691-5.25c9.474-2.143 18.97-4.123 28.5-6 9.426-1.856 18.818-3.814 28.188-5.937 10.386-2.351 20.803-4.497 31.25-6.563 11.595-2.295 23.169-4.661 34.723-7.162 9.04-1.957 18.09-3.866 27.143-5.763a4670.675 4670.675 0 0 0 46.665-10.032c20.324-4.469 20.324-4.469 28.219-5.855 7.086-1.287 14.101-2.849 21.125-4.438 10.699-2.417 21.426-4.628 32.187-6.75a1253.325 1253.325 0 0 0 34.57-7.301c9.548-2.15 19.138-4.058 28.74-5.949a940.044 940.044 0 0 0 24.69-5.25c10.737-2.428 21.508-4.623 32.309-6.75a940.116 940.116 0 0 0 24.691-5.25c10.737-2.428 21.508-4.623 32.309-6.75a940.116 940.116 0 0 0 24.691-5.25c10.737-2.428 21.508-4.623 32.309-6.75a940.116 940.116 0 0 0 24.691-5.25c10.737-2.428 21.508-4.623 32.309-6.75a940.116 940.116 0 0 0 24.691-5.25c9.474-2.143 18.97-4.123 28.5-6 9.426-1.856 18.818-3.814 28.188-5.937 10.386-2.351 20.803-4.497 31.25-6.563 11.595-2.295 23.169-4.661 34.723-7.162 9.04-1.957 18.09-3.866 27.143-5.763a4670.675 4670.675 0 0 0 46.665-10.032c20.324-4.469 20.324-4.469 28.219-5.855 7.086-1.287 14.101-2.849 21.125-4.438 10.699-2.417 21.426-4.628 32.187-6.75a1253.325 1253.325 0 0 0 34.57-7.301c9.548-2.15 19.138-4.058 28.74-5.949a940.044 940.044 0 0 0 24.69-5.25c10.737-2.428 21.508-4.623 32.309-6.75a940.116 940.116 0 0 0 24.691-5.25c10.737-2.428 21.508-4.623 32.309-6.75a940.116 940.116 0 0 0 24.691-5.25c10.737-2.428 21.508-4.623 32.309-6.75a940.116 940.116 0 0 0 24.691-5.25c10.737-2.428 21.508-4.623 32.309-6.75a940.116 940.116 0 0 0 24.691-5.25c9.474-2.143 18.97-4.123 28.5-6 9.427-1.856 18.818-3.814 28.188-5.937 10.386-2.351 20.803-4.497 31.25-6.563a2204.81 2204.81 0 0 0 38.164-7.906 3650.064 3650.064 0 0 1 21.214-4.507c3.235-.679 6.469-1.363 9.702-2.051 7.235-1.536 14.47-3.05 21.734-4.438 3.067-.587 6.13-1.192 9.193-1.799 1.439-.28 2.881-.551 4.324-.812 1.99-.362 3.974-.756 5.958-1.151l3.393-.639c4.813-2 6.319-5.888 8.294-10.494 2.408-6.865 4.488-13.509 5.586-20.703l.559-3.48c1.407-9.208 1.807-17.039-.352-26.102l-.569-2.464c-.4-1.719-.802-3.438-1.208-5.156-.606-2.563-1.2-5.128-1.791-7.694-3.462-14.898-7.369-29.585-12.322-44.057-1.608-4.821-2.95-9.716-4.317-14.609-1.626-5.814-3.315-11.531-5.437-17.188-2.786-7.506-4.842-15.194-6.968-22.909-1.705-6.18-3.442-12.343-5.345-18.466l-1.109-3.57c-1.116-3.371-1.116-3.371-2.657-6.801-1.462-3.452-2.507-6.825-3.484-10.441-.994-3.676-2.043-7.268-3.408-10.82-1.469-3.88-2.816-7.794-4.123-11.731-9.97-29.747-21.898-58.191-35.481-86.454-.956-1.991-1.909-3.984-2.862-5.977-10.356-21.666-20.738-43.326-32.394-64.328-4.501-8.178-8.651-16.516-12.794-24.878-15.198-30.606-33.194-57.932-53.98-85.038a711.922 711.922 0 0 1-12.895-17.399l-1.617-2.251-3.05-4.248a355.095 355.095 0 0 0-18.708-23.783c-2.452-2.862-4.825-5.782-7.188-8.718-4.436-5.44-9.131-10.617-13.921-15.746-1.7-1.822-3.393-3.652-5.087-5.481-6.951-7.486-14.007-14.838-21.305-21.988-2.89-2.847-5.658-5.731-8.289-8.82-4.353-4.999-9.016-9.665-13.706-14.344l-2.805-2.808a6440.38 6440.38 0 0 0-5.847-5.842 4334.39 4334.39 0 0 1-7.426-7.429c-2.388-2.393-4.781-4.782-7.172-7.171l-2.659-2.665c-4.404-4.388-8.865-8.642-13.588-12.687-2.568-2.208-5.029-4.523-7.507-6.832-4.622-4.27-9.382-8.307-14.286-12.254-3.292-2.689-6.502-5.463-9.714-8.246-6.348-5.478-12.867-10.699-19.503-15.822-1.612-1.246-3.217-2.501-4.822-3.756-20.696-16.1-42.442-30.356-64.631-44.284-10.177-6.397-20.245-12.843-29.97-19.911-20.864-15.134-43.464-27.429-66.262-39.352l-2.298-1.204c-4.996-2.616-9.998-5.22-15.007-7.81-1.632-.845-3.262-1.692-4.892-2.541-21.543-11.216-43.775-20.173-66.615-28.383l-3.633-1.311C2123.04 914.047 2080.695 903.285 2035 896l-2.728-.439c-32.534-5.232-65.221-7.885-98.06-10.32-4.42-.332-8.837-.683-13.255-1.037-40.971-2.828-85.85 2.316-124.957 14.796Z" style="fill: none; stroke-width: 10; stroke: rgb(98, 29, 12); stroke-opacity: 1;" class="stroke-shape"/></g></g><g style="opacity: 1;"><path d="M1083 1077.922c5.123 3.549 9.764 7.611 14.436 11.725 2.383 2.062 4.851 4.013 7.314 5.978 12.885 10.607 20.17 22.138 27.688 36.813l1 1.931c2.223 4.47 3.479 8.757 4.562 13.631.33 1.334.662 2.668 1 4l-3.562 1.125c-17.095 5.752-32.971 12.638-46.438 24.875l-1.914 1.668c-15.74 14.554-22.697 35.239-28.086 55.332l-.595 2.163c-7.758 29.236-2.213 64.109 12.47 90.337 13.734 22.67 33.975 36.05 58.125 45.5-3.843 6.104-8.12 11.66-12.726 17.207-2.809 3.451-5.421 7.01-8.004 10.632a389.606 389.606 0 0 1-5.133 6.977c-9.335 12.508-17.277 25.713-25.137 39.184l-3.57 6.089A5920.64 5920.64 0 0 0 1064 1471a14998.75 14998.75 0 0 1-7.125 12.25l-1.761 3.025a1624.274 1624.274 0 0 1-12.722 21.367c-3.501 5.815-6.869 11.697-10.204 17.608a630.934 630.934 0 0 1-26.5 42.687c-14.988 22.241-26.748 46.513-38.129 70.744a4360.489 4360.489 0 0 1-4.372 9.275c-14.412 30.315-14.412 30.315-28.196 60.915-3.588 8.23-7.478 16.285-11.491 24.316l-1.581 3.166c-2.554 5.071-5.158 10.106-7.867 15.095-4.433 8.184-8.336 16.522-12.052 25.052l-.945 2.153c-6.047 13.775-11.787 27.675-17.424 41.622-3.178 7.851-6.431 15.658-9.869 23.4l-.972 2.191a359.534 359.534 0 0 1-8.532 17.735 1050.17 1050.17 0 0 0-3.618 7.093c-11.249 22.28-24.504 41.193-40.812 60.009-2.469 2.858-4.845 5.782-7.203 8.734-9.411 11.593-19.905 23.409-31.75 32.563l-3.007 2.375C775 1976 775 1976 772.293 1975.871c-2.937-1.116-4.903-2.85-7.293-4.871-4.978-3.052-10.581-3.077-16.266-3.239-18.088-.584-37.009-7.346-49.734-20.761 1.795-5.523 1.795-5.523 2.801-7.864 3.094-7.317 3.148-13.717.246-21.117-5.807-11.201-16.909-17.146-27.43-23.391C672 1893 672 1893 670 1891c-.988-5.54.117-10.254 2.441-15.274 4.378-4.849 11.261-5.306 17.371-6.101 9.649-1.456 17.871-3.715 24.008-11.829 3.501-5.332 4.261-8.975 4.492-15.296.295-5.556 1.278-8.42 5.215-12.329 2.624-2.087 4.412-2.299 7.692-2.347 12.172-.302 22.809-.639 31.781-9.824 5.054-7.362 6.02-14.22 5-23-2.812-7.88-7.886-12.063-15-16-2.23-1.248-4.46-2.497-6.687-3.75l-1.798-1.011c-10.819-6.173-20.503-13.65-29.515-22.239l-1.852-1.625c-9.116-8.326-16.559-20.249-17.284-32.719-.153-3.647-.273-7.296-.393-10.944-.374-9.08-2.052-17.16-8.448-23.978-3.153-2.703-6.606-4.958-10.058-7.256-5.33-3.595-9.655-7.739-13.965-12.478l-1.648-1.782c-1.831-2.036-3.591-4.122-5.352-6.218l-1.439-1.668c-13.084-15.199-23.612-30.64-22.897-51.625 1.168-9.412 8.437-15.643 14.744-22.162 10.002-10.35 15.29-17.784 15.125-32.527-.331-8.798-2.154-17.182-4.046-25.752-2.385-11.096-2.703-22.082-2.8-33.391l-.053-3.791c.014-17.503 4.588-35.8 16.292-49.307 5.833-5.705 12.36-8.371 20.074-10.777l1.93-.614c19.237-3.593 40.614 2.992 56.57 13.676 4.394 3.196 8.515 6.632 12.645 10.159 13.156 11.176 25.904 17.477 42.855 20.779l2.499.528c16.612 3.333 33.823 3.172 49.501-3.528l2.84-1.164c13.739-6.224 22.278-16.19 27.535-30.086 6.266-16.81 4.55-33.481-2.807-49.586-8.807-18.641-20.389-34.318-34.568-49.164l-2.308-2.434c-6.488-6.673-13.636-12.421-20.977-18.121-8.279-6.435-16.265-13.133-24.138-20.059-1.934-1.701-3.881-3.386-5.827-5.074-4.089-3.582-8.093-7.257-12.109-10.922a338.315 338.315 0 0 0-6.391-5.64c-37.656-32.94-37.656-32.94-39.824-56.223-.521-12.058 2.113-20.429 8.574-30.527l1.891-3.051c19.422-28.848 55.921-42.274 88.492-49.074 34.527-6.706 59.173 4.43 87.552 23.051l2.89 1.887 2.576 1.707c6.04 3.44 11.778 4.301 18.599 3.48 8.535-2.403 14.564-6.162 19-14 1.84-4.437 3.028-8.904 3.875-13.625 3.933-20.592 13.11-34.957 30.317-46.824 10.765-7.279 21.871-13.417 33.808-18.551l2.414-1.098c15.308-6.163 31.33-.089 44.586 8.02Z" style="fill: rgb(78, 173, 37); fill-opacity: 1;" class="fills"/></g><g style="opacity: 1;"><path d="M1083 1077.922c5.123 3.549 9.763 7.611 14.436 11.725 2.383 2.061 4.851 4.013 7.314 5.978 12.885 10.607 20.169 22.138 27.687 36.813l1.001 1.931c2.222 4.47 3.478 8.757 4.562 13.631.33 1.334.662 2.668 1 4l-3.563 1.125c-17.095 5.752-32.97 12.638-46.437 24.875l-1.914 1.668c-15.74 14.554-22.697 35.24-28.086 55.332l-.595 2.163c-7.759 29.237-2.213 64.109 12.47 90.337 13.734 22.671 33.975 36.05 58.125 45.5-3.844 6.105-8.121 11.66-12.727 17.207-2.809 3.451-5.421 7.011-8.003 10.633a394.483 394.483 0 0 1-5.133 6.976c-9.335 12.509-17.277 25.714-25.137 39.184l-3.57 6.09A5799.477 5799.477 0 0 0 1064 1471c-2.373 4.085-4.748 8.168-7.125 12.25l-1.762 3.025c-4.178 7.16-8.434 14.272-12.722 21.368-3.501 5.815-6.868 11.696-10.204 17.607a630.555 630.555 0 0 1-26.5 42.688c-14.987 22.24-26.747 46.512-38.128 70.744a4115.297 4115.297 0 0 1-4.373 9.274c-14.411 30.315-14.411 30.315-28.196 60.916-3.587 8.229-7.477 16.285-11.49 24.316l-1.582 3.166c-2.553 5.071-5.157 10.106-7.867 15.095-4.433 8.183-8.335 16.521-12.051 25.051l-.946 2.154c-6.047 13.775-11.786 27.674-17.423 41.621-3.179 7.852-6.431 15.659-9.869 23.401l-.973 2.19a358.652 358.652 0 0 1-8.531 17.736c-1.214 2.36-2.422 4.723-3.618 7.092-11.25 22.28-24.505 41.194-40.812 60.009-2.47 2.859-4.845 5.783-7.203 8.735-9.412 11.592-19.905 23.408-31.75 32.562l-3.008 2.375C775 1976 775 1976 772.293 1975.871c-2.938-1.116-4.904-2.849-7.293-4.871-4.979-3.051-10.582-3.077-16.266-3.238-18.088-.585-37.009-7.347-49.734-20.762 1.795-5.523 1.795-5.523 2.801-7.863 3.094-7.317 3.148-13.717.246-21.117-5.807-11.202-16.909-17.147-27.43-23.391C672 1893 672 1893 670 1891c-.988-5.54.117-10.253 2.441-15.273 4.377-4.849 11.261-5.307 17.371-6.102 9.648-1.456 17.871-3.714 24.008-11.828 3.501-5.332 4.261-8.975 4.492-15.297.295-5.555 1.278-8.42 5.215-12.328 2.624-2.088 4.412-2.3 7.692-2.348 12.172-.301 22.809-.638 31.781-9.824 5.054-7.361 6.02-14.22 5-23-2.813-7.879-7.886-12.063-15-16-2.231-1.247-4.46-2.496-6.688-3.75l-1.797-1.01c-10.82-6.174-20.503-13.651-29.515-22.24l-1.852-1.625c-9.116-8.326-16.559-20.248-17.284-32.718a1211.06 1211.06 0 0 1-.393-10.945c-.374-9.08-2.052-17.16-8.448-23.978-3.153-2.703-6.606-4.958-10.058-7.256-5.33-3.595-9.655-7.738-13.965-12.478l-1.648-1.781c-1.831-2.036-3.591-4.123-5.352-6.219l-1.439-1.668c-13.083-15.198-23.612-30.64-22.897-51.625 1.168-9.411 8.437-15.643 14.744-22.162 10.002-10.35 15.29-17.783 15.125-32.526-.331-8.799-2.154-17.183-4.046-25.752-2.385-11.096-2.703-22.083-2.8-33.392l-.053-3.79c.014-17.503 4.588-35.8 16.292-49.308 5.833-5.705 12.36-8.371 20.074-10.777l1.93-.613c19.237-3.594 40.613 2.991 56.57 13.676 4.394 3.195 8.515 6.631 12.645 10.158 13.156 11.177 25.903 17.478 42.855 20.779l2.499.529c16.612 3.332 33.823 3.172 49.501-3.529l2.84-1.164c13.739-6.224 22.278-16.189 27.535-30.086 6.265-16.809 4.55-33.48-2.807-49.585-8.807-18.642-20.39-34.318-34.568-49.165l-2.309-2.434c-6.487-6.672-13.635-12.42-20.976-18.121-8.279-6.435-16.265-13.132-24.138-20.059-1.934-1.7-3.881-3.386-5.827-5.073-4.089-3.583-8.094-7.258-12.109-10.922a341.525 341.525 0 0 0-6.391-5.641c-37.657-32.94-37.657-32.94-39.824-56.223-.521-12.058 2.113-20.429 8.574-30.527l1.891-3.051c19.422-28.848 55.921-42.274 88.492-49.074 34.527-6.706 59.173 4.43 87.552 23.051l2.889 1.887 2.577 1.707c6.039 3.44 11.778 4.301 18.599 3.48 8.535-2.403 14.564-6.162 19-14 1.84-4.437 3.028-8.904 3.875-13.625 3.933-20.592 13.109-34.957 30.316-46.824 10.765-7.279 21.872-13.417 33.809-18.551l2.414-1.098c15.308-6.163 31.329-.089 44.586 8.02Z" style="fill: rgb(78, 173, 37); fill-opacity: 1;" class="fills"/></g><g style="opacity: 1;"><path d="m1488 810 2.891.504c32.553 5.752 73.165 18.646 97.109 42.496l1.785 1.457C1591 856 1591 856 1591.109 858.305l-.359 2.57-.328 2.555a101.951 101.951 0 0 1-.931 4.932c-4.268 22.942 3.042 45.082 12.509 65.638-4.025 4.441-8.413 7.291-13.562 10.312-1.624.972-3.246 1.946-4.868 2.922l-2.381 1.432c-4.838 2.948-9.502 6.154-14.189 9.334-2.435 1.629-4.874 3.252-7.312 4.875l-3.817 2.547a2010.886 2010.886 0 0 1-7.773 5.156 538.965 538.965 0 0 0-24.096 16.905 1330.384 1330.384 0 0 1-44.554 31.663c-7.977 5.429-15.815 10.946-23.448 16.854l-1.665 1.271c-11.752 8.972-22.421 18.727-32.812 29.237-2.756 2.722-5.627 5.247-8.574 7.757-2.189 1.948-4.217 4.011-6.261 6.11-4.406 4.45-9.117 8.366-14.005 12.272-3.376 2.714-6.715 5.474-10.058 8.228l-2.205 1.815A1417.806 1417.806 0 0 0 1361 1119l-2.121 1.812c-5.779 4.998-11.368 10.204-16.962 15.406a1991.816 1991.816 0 0 1-3.691 3.422c-13.5 12.489-26.455 25.504-39.413 38.547a9647.274 9647.274 0 0 1-11.053 11.109c-1.452 1.458-2.901 2.92-4.35 4.382-4.322 4.337-8.639 8.485-13.41 12.322a77.06 77.06 0 0 0-3.25 3.812c-1.453 1.832-1.453 1.832-2.75 3.188h-2l-1.539-3.184c-5.874-12.035-12.091-22.115-21.461-31.816l-1.945-2.059c-11.463-11.17-27.022-17.279-42.055-21.941a6147.99 6147.99 0 0 1-3.285-1.028A301.688 301.688 0 0 0 1185 1151l.5-2.813c1.614-11.82.209-22.473-5.562-33-3.087-5.808-3.858-11.095-4.512-17.59-.383-3.235-1.005-6.107-1.926-9.222-3.254-11.052-3.879-22.161-3.812-33.625l.007-2.105c.259-47.197 13.938-86.787 41.305-124.645l1.836-2.565c6.285-8.769 12.571-17.322 20.008-25.158 1.961-2.071 3.777-4.204 5.594-6.402 3.453-3.967 7.392-7.146 11.503-10.41 2.683-2.162 5.275-4.387 7.86-6.662 26.063-22.86 54.045-36.822 86.199-48.803l2.958-1.107c44.939-16.699 93.377-25.666 141.042-16.893Z" style="fill: rgb(246, 60, 34); fill-opacity: 1;" class="fills"/></g><g style="opacity: 1;"><path d="m1488 810 2.891.504c32.553 5.752 73.165 18.646 97.109 42.496l1.785 1.457C1591 856 1591 856 1591.109 858.305l-.359 2.57-.328 2.555a101.951 101.951 0 0 1-.931 4.932c-4.268 22.942 3.042 45.083 12.509 65.638-4.025 4.442-8.413 7.291-13.562 10.312-1.624.973-3.246 1.947-4.868 2.922l-2.381 1.432c-4.838 2.949-9.502 6.154-14.189 9.334-2.435 1.629-4.874 3.252-7.312 4.875l-3.817 2.547a2010.886 2010.886 0 0 1-7.773 5.156 538.965 538.965 0 0 0-24.096 16.905 1330.412 1330.412 0 0 1-44.554 31.664c-7.977 5.428-15.815 10.945-23.448 16.853l-1.665 1.271c-11.752 8.972-22.421 18.727-32.812 29.237-2.756 2.722-5.627 5.247-8.574 7.758-2.189 1.947-4.217 4.01-6.261 6.109-4.406 4.45-9.117 8.366-14.005 12.272-3.376 2.714-6.715 5.474-10.058 8.228l-2.205 1.815A1417.806 1417.806 0 0 0 1361 1119l-2.121 1.812c-5.779 4.998-11.368 10.204-16.962 15.406a1698.097 1698.097 0 0 1-3.691 3.422c-13.5 12.489-26.455 25.504-39.413 38.548a9646.4 9646.4 0 0 1-11.053 11.108c-1.452 1.459-2.901 2.92-4.35 4.382-4.322 4.338-8.639 8.485-13.41 12.322a76.626 76.626 0 0 0-3.25 3.813c-1.453 1.832-1.453 1.832-2.75 3.187h-2l-1.539-3.184c-5.874-12.035-12.091-22.115-21.461-31.816l-1.945-2.059c-11.462-11.17-27.022-17.279-42.055-21.941l-3.285-1.027A301.712 301.712 0 0 0 1185 1151l.5-2.812c1.614-11.821.209-22.474-5.562-33.001-3.087-5.808-3.858-11.094-4.512-17.589-.383-3.235-1.005-6.107-1.926-9.223-3.254-11.051-3.879-22.161-3.812-33.625l.007-2.105c.259-47.197 13.938-86.786 41.305-124.645l1.836-2.564c6.285-8.77 12.571-17.323 20.008-25.159 1.961-2.071 3.777-4.204 5.594-6.402 3.453-3.967 7.392-7.146 11.503-10.41 2.683-2.162 5.275-4.387 7.86-6.663 26.063-22.859 54.045-36.821 86.199-48.802l2.958-1.107c44.939-16.699 93.377-25.666 141.042-16.893Z" style="fill: rgb(246, 60, 34); fill-opacity: 1;" class="fills"/></g><g style="opacity: 1;"><path d="M1751 1258c32.099 27.763 39.179 75.541 46 115l.478 2.753c3.809 21.993 7.507 44.001 10.022 66.185l.249 2.122c2.307 20.011 2.668 39.948-4.749 58.94-5.677 2.839-12.481.282-18.25-1.25-30.408-7.577-61.435-8.904-92.625-9l-2.942-.016c-22.702-.095-45.055 2.2-67.558 5.016l-3.16.392c-93.822 9.836-93.822 9.835-180.028 45.358-4.502 2.79-7.177 3.465-12.437 2.5-3.479-1.901-5.62-4.222-7.375-7.812L1418 1536h-2c-.372-6.945.599-11.673 3.375-18 .745-1.766 1.488-3.533 2.23-5.3l1.193-2.808a312.895 312.895 0 0 0 3.503-8.872c7.726-20.196 17.706-39.041 28.428-57.782 1.483-2.611 2.946-5.232 4.408-7.855a2636.292 2636.292 0 0 1 22.527-39.601 504.558 504.558 0 0 0 5.672-10c8.081-14.645 18.44-28.072 29.852-40.282 4.275-4.678 7.969-9.692 11.687-14.812 11.722-16.099 24.553-30.938 40.219-43.356 3.519-2.824 6.935-5.752 10.344-8.707l1.947-1.683c2.944-2.56 5.854-5.14 8.678-7.833 18.626-17.714 40.42-27.962 64.937-35.109l3.711-1.098c34.541-8.497 66.051 2.891 92.289 25.098Z" style="fill: rgb(1, 0, 0); fill-opacity: 1;" class="fills"/></g><g style="opacity: 1;"><path d="M1751 1258c32.099 27.763 39.179 75.541 46 115l.478 2.753c3.809 21.993 7.506 44.001 10.022 66.185l.249 2.121c2.307 20.011 2.668 39.949-4.749 58.941-5.677 2.839-12.481.281-18.25-1.25-30.408-7.577-61.435-8.905-92.625-9l-2.942-.016c-22.702-.095-45.055 2.2-67.558 5.016l-3.16.392c-93.822 9.835-93.822 9.835-180.028 45.358-4.502 2.79-7.177 3.464-12.437 2.5-3.479-1.902-5.62-4.223-7.375-7.812L1418 1536h-2c-.372-6.946.599-11.674 3.375-18a3113.56 3113.56 0 0 0 2.23-5.301l1.193-2.807c1.222-2.939 2.371-5.898 3.503-8.872 7.726-20.196 17.706-39.041 28.428-57.783 1.483-2.61 2.946-5.231 4.408-7.854a2636.393 2636.393 0 0 1 22.527-39.602 504.558 504.558 0 0 0 5.672-10c8.081-14.645 18.44-28.071 29.851-40.281 4.275-4.678 7.97-9.692 11.688-14.812 11.722-16.099 24.553-30.939 40.219-43.356 3.519-2.824 6.935-5.752 10.343-8.707l1.948-1.683c2.944-2.56 5.854-5.14 8.677-7.833 18.626-17.714 40.42-27.962 64.938-35.109l3.711-1.098c34.541-8.497 66.05 2.891 92.289 25.098Z" style="fill: rgb(1, 0, 0); fill-opacity: 1;" class="fills"/></g><g style="opacity: 1;"><path d="m2391 1155 2.449.551c12.543 3.047 23.935 11.148 33.551 19.449l3.063 2.25c4.839 4.119 8.403 9.52 11.937 14.75l1.138 1.682c7.784 11.84 11.729 24.986 15.925 38.42a123.046 123.046 0 0 0 2.554 7.136c1.625 4.23 2.652 8.532 3.633 12.95l.623 2.757c2.488 11.292 4.556 22.672 6.628 34.046 1.347 7.337 2.806 14.525 4.874 21.7.905 3.344 1.381 6.621 1.813 10.059l.48 3.672c.329 3.549.391 7.016.332 10.578h2c2.005 15.018 3.316 29.857 3.375 45l.041 3.985c-.085 18.561-.085 18.561-4.635 24.646-2.472 1.901-4.107 1.712-7.204 1.662l-3.374-.03-3.664-.075-3.804-.035c-5.37-.048-10.739-.132-16.108-.214-15.395-.217-30.146.015-45.325 2.7-4.163.654-8.356.994-12.552 1.361-33.331 3.166-66.337 12.711-97.937 23.438a254.47 254.47 0 0 1-14.413 4.388c-27.332 7.486-55.059 16.805-80.822 28.647-5.477 2.512-11.026 4.779-16.641 6.965l-3.009 1.174c-8.252 3.19-16.581 6.066-25.003 8.768-2.837.914-5.662 1.861-8.488 2.808l-2.828.93a143.528 143.528 0 0 0-5.093 1.828c-5.886 2.192-10.135 2.539-16.079-.071-4.837-3.721-8.594-7.986-10.437-13.875-.173-9.71 5.231-19.527 8.901-28.296 1.18-2.903 2.269-5.833 3.361-8.77 2.836-7.416 6.207-14.54 9.635-21.695 1.523-3.177 3.035-6.36 4.547-9.542l2.304-4.844a2000.456 2000.456 0 0 0 9.689-20.728c1.584-3.412 3.17-6.824 4.757-10.236 1.315-2.83 2.627-5.663 3.936-8.496 17.565-37.96 17.565-37.96 26.87-51.393l1.671-2.422c2.99-4.319 6.01-8.616 9.048-12.902 5.348-7.576 10.265-15.417 15.144-23.301 5.927-9.542 11.98-18.705 19.137-27.375l1.421-1.729a269.494 269.494 0 0 1 19.13-20.83c2.665-2.656 5.131-5.421 7.574-8.281 2.873-3.31 5.857-6.517 8.83-9.736a245.904 245.904 0 0 0 7.483-8.487c8.443-9.641 18.083-17.103 28.893-23.888a269.573 269.573 0 0 0 4.177-2.69c25.516-16.181 56.571-27.273 86.492-18.359Z" style="fill: rgb(1, 1, 0); fill-opacity: 1;" class="fills"/></g><g style="opacity: 1;"><path d="m2391 1155 2.449.551c12.542 3.047 23.935 11.148 33.551 19.449l3.062 2.25c4.84 4.119 8.404 9.52 11.938 14.75l1.138 1.682c7.784 11.84 11.729 24.986 15.924 38.42a123.805 123.805 0 0 0 2.555 7.136c1.625 4.23 2.652 8.532 3.633 12.949l.622 2.758c2.489 11.291 4.557 22.671 6.629 34.046 1.347 7.337 2.806 14.524 4.874 21.7.905 3.343 1.381 6.621 1.812 10.059l.481 3.672c.832 3.578.832 4.078 1.832 7.578 0 0 .5 2 .5 3 2.005 15.017 3.316 29.856 3.375 45l.041 3.984c-.085 18.561-.085 18.561-4.636 24.647-2.472 1.901-4.106 1.712-7.203 1.662l-3.374-.03-3.664-.076-3.805-.034c-5.369-.049-10.738-.132-16.107-.215-15.395-.216-30.147.015-45.325 2.7-4.163.655-8.356.994-12.552 1.362-33.331 3.166-66.337 12.711-97.938 23.437a254.448 254.448 0 0 1-14.412 4.389c-27.332 7.485-55.059 16.805-80.822 28.647-5.477 2.512-11.026 4.779-16.641 6.964l-3.009 1.175c-8.252 3.189-16.581 6.065-25.003 8.768-2.837.914-5.662 1.861-8.488 2.807l-2.828.93a145.542 145.542 0 0 0-5.093 1.828c-5.886 2.192-10.135 2.539-16.079-.07-4.837-3.721-8.594-7.987-10.437-13.875-.173-9.71 5.231-19.527 8.901-28.296 1.18-2.903 2.269-5.833 3.361-8.77 2.836-7.416 6.207-14.54 9.635-21.695 1.523-3.178 3.035-6.36 4.547-9.543l2.304-4.843a2000.456 2000.456 0 0 0 9.689-20.728c1.584-3.413 3.17-6.825 4.757-10.236 1.315-2.831 2.627-5.663 3.936-8.496 17.565-37.96 17.565-37.96 26.87-51.393l1.671-2.423c2.99-4.319 6.01-8.615 9.048-12.901 5.348-7.576 10.265-15.418 15.144-23.301 5.927-9.542 11.979-18.705 19.137-27.375l1.421-1.729a269.294 269.294 0 0 1 19.13-20.83c2.665-2.656 5.131-5.421 7.574-8.281 2.873-3.31 5.857-6.517 8.83-9.736a244.818 244.818 0 0 0 7.482-8.487c8.444-9.641 18.084-17.103 28.894-23.888a269.573 269.573 0 0 0 4.177-2.69c25.516-16.181 56.571-27.273 86.492-18.359Z" style="fill: rgb(1, 1, 0); fill-opacity: 1;" class="fills"/><g class="strokes"><path d="m2391 1155 2.449.551c12.542 3.047 23.935 11.148 33.551 19.449l3.062 2.25c4.84 4.119 8.404 9.52 11.938 14.75l1.138 1.682c7.784 11.84 11.729 24.986 15.924 38.42a123.805 123.805 0 0 0 2.555 7.136c1.625 4.23 2.652 8.532 3.633 12.949l.622 2.758c2.489 11.291 4.557 22.671 6.629 34.046 1.347 7.337 2.806 14.524 4.874 21.7.905 3.343 1.381 6.621 1.812 10.059l.481 3.672c.832 3.578.832 4.078 1.832 7.578 0 0 .5 2 .5 3 2.005 15.017 3.316 29.856 3.375 45l.041 3.984c-.085 18.561-.085 18.561-4.636 24.647-2.472 1.901-4.106 1.712-7.203 1.662l-3.374-.03-3.664-.076-3.805-.034c-5.369-.049-10.738-.132-16.107-.215-15.395-.216-30.147.015-45.325 2.7-4.163.655-8.356.994-12.552 1.362-33.331 3.166-66.337 12.711-97.938 23.437a254.448 254.448 0 0 1-14.412 4.389c-27.332 7.485-55.059 16.805-80.822 28.647-5.477 2.512-11.026 4.779-16.641 6.964l-3.009 1.175c-8.252 3.189-16.581 6.065-25.003 8.768-2.837.914-5.662 1.861-8.488 2.807l-2.828.93a145.542 145.542 0 0 0-5.093 1.828c-5.886 2.192-10.135 2.539-16.079-.07-4.837-3.721-8.594-7.987-10.437-13.875-.173-9.71 5.231-19.527 8.901-28.296 1.18-2.903 2.269-5.833 3.361-8.77 2.836-7.416 6.207-14.54 9.635-21.695 1.523-3.178 3.035-6.36 4.547-9.543l2.304-4.843a2000.456 2000.456 0 0 0 9.689-20.728c1.584-3.413 3.17-6.825 4.757-10.236 1.315-2.831 2.627-5.663 3.936-8.496 17.565-37.96 17.565-37.96 26.87-51.393l1.671-2.423c2.99-4.319 6.01-8.615 9.048-12.901 5.348-7.576 10.265-15.418 15.144-23.301 5.927-9.542 11.979-18.705 19.137-27.375l1.421-1.729a269.294 269.294 0 0 1 19.13-20.83c2.665-2.656 5.131-5.421 7.574-8.281 2.873-3.31 5.857-6.517 8.83-9.736a244.818 244.818 0 0 0 7.482-8.487c8.444-9.641 18.084-17.103 28.894-23.888a269.573 269.573 0 0 0 4.177-2.69c25.516-16.181 56.571-27.273 86.492-18.359Z" style="fill: none; stroke-width: 1; stroke: rgb(0, 0, 0); stroke-opacity: 1;" class="stroke-shape"/></g></g><g style="opacity: 1;"><path d="m2140 726 2.49.804c18.731 6.067 35.91 14.715 53.23 23.986a482.928 482.928 0 0 0 6.585 3.421c35.136 18.048 59.56 41.169 82.695 72.789l1.449 1.973c4.095 5.611 7.686 11.096 10.614 17.402 3.33 6.965 7.669 10.714 14.25 14.563 5.803 1.672 11.914 1.987 17.687.062 8.407-.824 13.491 2.633 19.742 7.76 8.812 7.42 16.779 15.484 24.258 24.24.951 1.088 1.903 2.175 2.856 3.262 12.339 14.128 21.604 28.378 27.019 46.488l.579 1.926c3.183 11.427 3.873 22.826 3.807 34.612-.011 2.303 0 4.606.013 6.91-.002 1.477-.004 2.954-.008 4.431l.012 2.068c-.035 3.603-.318 6.235-2.278 9.303-35.46-22.507-35.46-22.507-48.92-31.807-24.389-16.848-49.575-31.349-75.845-45.028a2998.054 2998.054 0 0 1-6.641-3.472c-24.682-12.922-49.273-24.549-75.543-33.956-2.971-1.067-5.937-2.143-8.905-3.218-8.3-3.008-16.61-5.987-24.929-8.943-4.527-1.61-9.045-3.241-13.554-4.898-20.213-7.413-40.528-12.609-61.663-16.678l-2.083-.401C2048.383 846.22 2009.105 840.174 1970 837c-1.531-.133-3.063-.266-4.594-.401-41.982-3.651-83.581-4.203-125.406 1.401l-2.106.279c-19.778 2.64-38.765 7.187-57.894 12.721l-2.376.671c-35.3 9.989-69.258 25.266-101.007 43.484-9.351 5.337-18.933 10.147-28.617 14.845-8.028-9.558-9.194-23-8.239-34.955 2.043-17.461 15.002-30.679 28.016-41.314A92.23 92.23 0 0 1 1675 829l2.273-1.382c16.203-8.99 33.883-8.155 51.81-8.033 22.803.104 44.233-2.486 61.452-18.952 10.666-11.392 19.192-24.367 26.451-38.135 4.843-9.144 9.791-17.941 18.014-24.498 4 0 4 0 6.087 1.617l2.214 2.258 2.463 2.488 2.549 2.637 2.513 2.543c3.77 3.838 7.438 7.715 10.928 11.809 2.697 3.126 5.484 5.631 8.871 8.023l2.727 1.961c6.725 4.225 12.845 4.482 20.648 3.664 8.423-2.119 14.787-6.816 21.453-12.184C1978.269 712.354 2064.386 700.867 2140 726Z" style="fill: rgb(78, 173, 37); fill-opacity: 1;" class="fills"/></g><g style="opacity: 1;"><path d="m2140 726 2.49.804c18.731 6.067 35.91 14.714 53.23 23.986a477.141 477.141 0 0 0 6.585 3.421c35.135 18.048 59.56 41.169 82.695 72.789l1.449 1.973c4.095 5.61 7.686 11.095 10.613 17.402 3.331 6.965 7.67 10.713 14.25 14.562 5.804 1.673 11.915 1.987 17.688.063 8.407-.824 13.491 2.633 19.741 7.759 8.813 7.42 16.78 15.484 24.259 24.241l2.855 3.262c12.34 14.128 21.605 28.378 27.02 46.488l.579 1.926c3.183 11.427 3.873 22.826 3.807 34.611-.011 2.304 0 4.607.012 6.91-.001 1.477-.004 2.955-.007 4.432l.012 2.067c-.036 3.604-.318 6.236-2.278 9.304-35.46-22.507-35.46-22.507-48.92-31.808-24.39-16.847-49.575-31.348-75.845-45.027a4187.416 4187.416 0 0 1-6.642-3.472c-24.681-12.923-49.273-24.55-75.543-33.957-2.97-1.066-5.937-2.142-8.904-3.218a4223.25 4223.25 0 0 0-24.929-8.942c-4.527-1.61-9.045-3.241-13.554-4.899-20.213-7.412-40.528-12.608-61.663-16.677l-2.083-.402C2048.382 846.22 2009.104 840.174 1970 837l-4.595-.401c-41.981-3.652-83.58-4.203-125.405 1.401l-2.106.279c-19.778 2.639-38.765 7.187-57.894 12.721l-2.376.67c-35.3 9.989-69.258 25.267-101.007 43.484-9.351 5.338-18.933 10.147-28.617 14.846-8.028-9.559-9.194-23-8.239-34.955 2.043-17.461 15.002-30.68 28.016-41.315A92.504 92.504 0 0 1 1675 829l2.273-1.383c16.203-8.989 33.883-8.154 51.81-8.032 22.803.104 44.233-2.487 61.452-18.952 10.665-11.392 19.191-24.367 26.451-38.135 4.842-9.144 9.791-17.941 18.014-24.498 4 0 4 0 6.087 1.617l2.214 2.258 2.463 2.488 2.548 2.637 2.514 2.543c3.769 3.838 7.438 7.715 10.928 11.809 2.697 3.126 5.483 5.631 8.871 8.023l2.727 1.961c6.724 4.225 12.845 4.482 20.648 3.664 8.423-2.119 14.786-6.816 21.453-12.184C1978.268 712.354 2064.386 700.867 2140 726Z" style="fill: rgb(78, 173, 37); fill-opacity: 1;" class="fills"/></g><g style="opacity: 1;"><path d="M755.75 1320.812c1.419 1.394 2.835 2.79 4.25 4.188 2.117 1.888 4.277 3.724 6.437 5.562l1.787 1.532a936.14 936.14 0 0 0 28.213 23.218c5.048 4.025 9.847 8.28 14.563 12.688l2.722 2.523c9.366 8.984 16.581 19.043 22.903 30.352l1.04 1.8c2.515 4.712 2.976 8.12 2.335 13.325-1.41 1.972-1.41 1.972-4 3-12.085 1.7-26.182 1.055-36.188-6.364-2.219-1.842-4.364-3.757-6.5-5.695C764.401 1380.785 727.18 1371.092 689 1373c-5.919.63-11.381 2.073-17 4l-1.952.665c-27.056 9.44-42.724 27.036-55.04 52.217-4.546 9.549-6.923 19.786-9.008 30.118l-.537 2.652c-.593 4.289-.664 8.503-.701 12.828l-.029 2.783c-.025 2.974-.037 5.949-.046 8.924l-.012 3.058c-.026 14.564.764 28.413 3.45 42.747 1.456 8.057 1.456 8.057.875 12.008-1.784 2.336-3.395 4.135-5.5 6.125-14.826 15.031-21.926 33.01-21.812 54l.017 3.329c.215 14.549 3.125 27.344 9.295 40.546l.863 1.854c7.715 16.215 19.307 29.789 31.137 43.146l1.368 1.559c8.409 9.943 8.409 9.943 18.804 17.593 2.902 2.933 2.513 6.491 2.703 10.41 1.685 21.249 11.023 39.656 25.125 55.438l2.355 2.718c3.955 4.505 7.891 8.625 12.645 12.282-1.948 4.299-4.74 7.967-7.49 11.783-2.553 3.616-4.393 7.127-6.135 11.217-2.164 4.17-4.108 5.686-8.585 7.177a362.97 362.97 0 0 1-5.962 1.658c-5.647 1.579-10.156 4.7-14.828 8.165l-2.137 1.511c-11.569 9.024-17.388 23.286-20.465 37.211-2.079 17.106-1.6 33.605 8.352 48.215 4.458 5.655 9.549 11.144 16 14.488 2.25 1.575 2.25 1.575 2.738 3.836l-.176 2.426-.136 2.449L647 1946c-3.642-1.536-5.965-3.72-8.738-6.508l-2.737-2.742-1.415-1.434a995.067 995.067 0 0 0-4.225-4.246c-4.633-4.662-9.137-9.379-13.416-14.367-1.964-2.278-4.033-4.452-6.094-6.641-22.883-25.199-39.436-55.348-55.76-84.986a687.354 687.354 0 0 0-11.089-19.338c-11.448-19.263-20.411-38.855-27.614-60.072a282.085 282.085 0 0 0-2.334-6.557c-7.491-20.916-11.643-43.143-14.578-65.109l-.453-3.162c-12.31-87.617 10.825-192.271 64.133-263.444 6.006-7.872 12.501-15.22 19.32-22.394l1.789-1.949C594.1 1372.155 607.173 1364.519 620 1357l3.009-1.772c102.739-60.375 102.739-60.375 132.741-34.416Z" style="fill: rgb(159, 96, 43); fill-opacity: 1;" class="fills"/></g><g style="opacity: 1;"><path d="M755.75 1320.812c1.419 1.394 2.835 2.79 4.25 4.188 2.117 1.888 4.277 3.724 6.437 5.562l1.788 1.532a934.852 934.852 0 0 0 28.212 23.218c5.048 4.025 9.847 8.28 14.563 12.688l2.723 2.523c9.366 8.984 16.58 19.043 22.902 30.352l1.04 1.8c2.515 4.712 2.976 8.121 2.335 13.325-1.41 1.973-1.41 1.973-4 3-12.085 1.7-26.182 1.055-36.188-6.363-2.219-1.842-4.364-3.758-6.5-5.696C764.401 1380.785 727.18 1371.093 689 1373c-5.919.63-11.381 2.073-17 4l-1.952.665c-27.055 9.44-42.723 27.036-55.04 52.217-4.546 9.549-6.923 19.787-9.008 30.118l-.537 2.652c-.593 4.289-.664 8.503-.701 12.828l-.029 2.783c-.025 2.975-.037 5.949-.045 8.924l-.012 3.059c-.027 14.564.763 28.413 3.449 42.746 1.456 8.057 1.456 8.057.875 12.008-1.784 2.337-3.394 4.135-5.5 6.125-14.826 15.031-21.926 33.011-21.812 54l.017 3.33c.215 14.549 3.125 27.343 9.295 40.545l.863 1.854c7.715 16.215 19.307 29.789 31.137 43.146l1.368 1.56c8.409 9.942 8.409 9.942 18.804 17.592 2.902 2.933 2.513 6.492 2.703 10.41 1.685 21.249 11.024 39.656 25.125 55.438l2.355 2.719c3.955 4.504 7.892 8.624 12.645 12.281-1.948 4.3-4.74 7.967-7.49 11.783-2.553 3.617-4.393 7.127-6.135 11.217-2.164 4.17-4.108 5.687-8.585 7.177a373.226 373.226 0 0 1-5.962 1.659c-5.647 1.579-10.155 4.699-14.828 8.164l-2.137 1.512c-11.569 9.023-17.388 23.285-20.465 37.211-2.079 17.105-1.6 33.605 8.352 48.214 4.458 5.655 9.55 11.144 16 14.489 2.25 1.574 2.25 1.574 2.738 3.836l-.175 2.425-.137 2.45L647 1946c-3.642-1.535-5.964-3.72-8.738-6.508l-2.737-2.742-1.414-1.434c-1.403-1.421-2.815-2.833-4.226-4.246-4.633-4.662-9.137-9.379-13.416-14.367-1.964-2.277-4.032-4.451-6.094-6.641-22.883-25.199-39.437-55.347-55.76-84.985a688.829 688.829 0 0 0-11.089-19.339c-11.448-19.262-20.411-38.854-27.614-60.072a282.085 282.085 0 0 0-2.334-6.557c-7.491-20.915-11.643-43.143-14.578-65.109l-.453-3.162c-12.31-87.617 10.825-192.27 64.133-263.444 6.006-7.872 12.501-15.22 19.32-22.394l1.789-1.949C594.1 1372.155 607.173 1364.519 620 1357l3.009-1.772c102.74-60.375 102.74-60.375 132.741-34.416Z" style="fill: rgb(159, 96, 43); fill-opacity: 1;" class="fills"/></g><g style="opacity: 1;"><path d="M2399 845c77.353 6.274 162.644 40.227 222 90l1.802 1.502c7.206 6.007 14.344 12.089 21.198 18.498l1.515 1.412c38.618 36.305 74.931 102.156 77.594 155.777.154 5.063.128 10.122.079 15.186l-.031 4.667c-.034 4.32-.094 8.639-.157 12.958l-.026 2.964c-.262 22.837-4.49 46.825-12.974 68.036h-19l-1.25-8.562c-4.054-25.964-14.082-49.733-31.75-69.438l-1.887-2.137c-8.377-8.939-21.447-19.111-34.027-20.09-3.466-.334-5.231-.725-8.086-2.773-2.733-4.681-4.206-9.97-5.914-15.086-4.962-14.691-12.995-28.195-23.086-39.914l-2.273-2.691c-21.476-24.678-50.927-42.342-83.665-45.934l-3.331-.378c-12.876-1.366-25.793-1.732-38.731-1.997l.219-2.551c2.737-36.604-.868-71.241-17.219-104.449l-1.75-3.586c-8.696-16.949-22.066-31.133-35.07-44.891-1.889-2.186-2.973-3.949-4.18-6.523Z" style="fill: rgb(246, 60, 34); fill-opacity: 1;" class="fills"/></g><g style="opacity: 1;"><path d="M2399 845c77.353 6.274 162.644 40.227 222 90l1.802 1.502c7.206 6.007 14.344 12.089 21.198 18.498l1.515 1.412c38.618 36.305 74.931 102.156 77.594 155.777.154 5.063.128 10.122.079 15.186l-.031 4.667c-.034 4.32-.094 8.639-.157 12.958l-.026 2.964c-.262 22.837-4.49 46.825-12.974 68.036h-19l-1.25-8.562c-4.054-25.964-14.082-49.733-31.75-69.438l-1.887-2.137c-8.377-8.938-21.447-19.111-34.027-20.09-3.466-.334-5.231-.725-8.086-2.773-2.733-4.681-4.206-9.97-5.914-15.086-4.962-14.691-12.995-28.195-23.086-39.914l-2.273-2.691c-21.476-24.678-50.927-42.342-83.664-45.934l-3.332-.378c-12.876-1.366-25.793-1.732-38.731-1.997l.219-2.551c2.736-36.604-.868-71.241-17.219-104.449l-1.75-3.586c-8.696-16.949-22.066-31.133-35.07-44.891-1.889-2.186-2.973-3.949-4.18-6.523Z" style="fill: rgb(246, 60, 34); fill-opacity: 1;" class="fills"/></g><g style="opacity: 1;"><path d="m2642 1375 3.319 1.504a1066.99 1066.99 0 0 1 10.744 4.996l3.387 1.58c7.47 3.598 14.013 7.831 20.55 12.92l2.253 1.724c10.485 8.199 19.058 22.52 21.462 35.589 2.144 20.212-2.896 39.189-15.09 55.562A140.607 140.607 0 0 1 2685 1493l-2.203 2.445c-29.084 30.68-76.201 41.198-116.167 48.099-2.186.379-4.368.787-6.548 1.202-20.933 3.627-42.142.535-62.982-2.214a572.936 572.936 0 0 0-8.362-1.034c-7.165-.84-14.206-1.761-21.175-3.685l-2.384-.65c-22.49-6.372-43.648-17.655-56.179-38.163-1.644-3.262-2.911-6.515-4-10l-.68-2.062c-4.749-17.177.127-33.895 8.514-48.942 5.74-9.823 12.671-18.41 21.166-25.996l1.559-1.61c3.793-2.159 7.446-1.72 11.73-1.613l2.726.028c2.871.03 5.74.079 8.61.133 2.877.047 5.754.091 8.631.122 1.79.02 3.58.049 5.369.09 2.125.026 4.252-.053 6.375-.15 2.471-2.471 2.739-4.185 3.563-7.562l.828-3.266c.548-2.856.56-5.111.422-7.984.202-2.02.202-2.02 1.187-4.188 8.663-5.744 18.97-8.997 28.813-12.062l2.005-.637c42.795-13.566 84.424-17.313 126.182 1.699Z" style="fill: rgb(254, 169, 169); fill-opacity: 1;" class="fills"/></g><g style="opacity: 1;"><path d="m2642 1375 3.319 1.504a1066.99 1066.99 0 0 1 10.744 4.996l3.387 1.58c7.47 3.598 14.013 7.831 20.55 12.92l2.253 1.724c10.485 8.199 19.058 22.52 21.462 35.589 2.145 20.212-2.896 39.188-15.09 55.562A141.917 141.917 0 0 1 2685 1493l-2.203 2.445c-29.084 30.679-76.201 41.198-116.167 48.099-2.186.379-4.368.787-6.548 1.202-20.933 3.627-42.142.535-62.982-2.214a559.493 559.493 0 0 0-8.362-1.034c-7.165-.84-14.206-1.761-21.175-3.685l-2.384-.65c-22.49-6.372-43.648-17.655-56.179-38.163-1.644-3.263-2.911-6.515-4-10l-.68-2.062c-4.749-17.177.127-33.895 8.514-48.942 5.74-9.823 12.671-18.41 21.166-25.996l1.559-1.61c3.793-2.159 7.446-1.72 11.73-1.613l2.726.028c2.871.03 5.74.079 8.61.133 2.877.047 5.754.091 8.631.122 1.79.02 3.58.049 5.369.09 2.125.026 4.252-.053 6.375-.15 2.471-2.471 2.739-4.185 3.563-7.562l.828-3.266c.548-2.856.56-5.111.422-7.984.202-2.02.202-2.02 1.187-4.188 8.663-5.744 18.97-8.997 28.813-12.062l2.005-.637c42.795-13.566 84.424-17.313 126.182 1.699Z" style="fill: rgb(254, 169, 169); fill-opacity: 1;" class="fills"/></g><g style="opacity: 1;"><path d="m1407.625 1529.937 2.141.014c1.745.012 3.489.03 5.234.049l1 6h2c1.438 1.715 1.438 1.715 3 3.937 2.048 3.049 2.048 3.049 5 5.063 6.998.695 10.856-1.071 16.75-4.688 1.586-.922 3.175-1.84 4.766-2.753l2.322-1.341c10.437-5.88 19.012-7.834 30.662-4.921 15.637 4.398 15.637 4.398 19.5 6.703l1 2 2.625.625c5.256 2.141 8.925 6.231 11.309 11.398.463 1.326.915 2.655 1.355 3.989 2.255 6.305 6.234 10.605 11.024 15.175 11.588 11.182 18.648 25.543 19.226 41.692.15 17.277-4.965 32.101-17.039 44.731-18.152 17.357-43.384 26.514-66.5 35.39l-2.621 1.008c-10.617 3.969-21.586 6.186-32.691 8.305l-2.044.393c-28.581 5.424-58.155 4.876-86.644-.706l-2.338-.453c-4.631-.937-9.153-2.146-13.662-3.547l-2.671-.828c-26.306-8.319-45.211-19.672-59.102-44.273-2.936-6.938-3.567-13.869-3.477-21.336l.027-2.534c.336-17.849 7.84-31.518 20.223-44.029 11.042-10.536 24.206-17.954 37.437-25.375l2.185-1.227c4.325-2.385 8.707-4.457 13.241-6.416 1.989-.914 3.831-1.928 5.707-3.052 3.696-2.08 7.3-3.467 11.305-4.805a7925.97 7925.97 0 0 0 4.488-1.535l2.311-.786a364.235 364.235 0 0 0 6.932-2.488l2.264-.826a540.459 540.459 0 0 0 4.245-1.574c4.647-1.68 8.976-2.373 13.885-2.916l1-1c2.48-.375 4.948-.706 7.438-1 5.958-.708 11.163-2.135 17.187-2.063Z" style="fill: rgb(254, 169, 169); fill-opacity: 1;" class="fills"/></g><g style="opacity: 1;"><path d="M2090 1576c3.61 1.927 5.684 4.052 7 8 2.624 20.5-11.858 43.034-20.524 60.845-1.285 2.648-2.557 5.302-3.829 7.956-7.192 14.876-15.543 28.551-25.276 41.886-2.258 3.117-4.349 6.327-6.433 9.563-3.813 5.768-8.163 10.763-12.938 15.75l-1.855 2.046c-11.417 12.171-26.58 21.828-43.442 23.227-9.659.284-16.028-1.342-23.453-7.586L1957 1735l-1.418-1.567c-12.326-14.671-15.919-38.225-19.081-56.559-.523-3.002-1.081-5.998-1.638-8.995-2.475-13.754-3.557-26.92-2.863-40.879l.117-2.782c.13-2.723.308-5.437.508-8.155l.135-2.457c.469-5.032 1.72-8.433 5.33-12.058 5.595-4.535 12.95-4.989 19.879-4.989l2.515-.038c1.764-.026 3.527-.046 5.291-.06 4.604-.04 9.207-.129 13.811-.219l2.742-.051c10.937-.225 21.794-1.046 32.672-2.191l2.105-.206c4.333-.433 8.604-1.06 12.895-1.794l2.423-.399c13.55-2.314 25.733-6.266 38.266-11.943 6.416-2.83 12.229-5.042 19.311-3.658Z" style="fill: rgb(1, 1, 0); fill-opacity: 1;" class="fills"/></g><g style="opacity: 1;"><path d="M2090 1576c3.609 1.927 5.684 4.052 7 8 2.623 20.5-11.858 43.034-20.524 60.845-1.285 2.648-2.557 5.302-3.83 7.956-7.191 14.876-15.542 28.551-25.275 41.887-2.258 3.116-4.349 6.326-6.434 9.562-3.812 5.769-8.162 10.763-12.937 15.75l-1.855 2.047c-11.417 12.171-26.58 21.828-43.442 23.226-9.659.285-16.028-1.342-23.453-7.585L1957 1735l-1.418-1.566c-12.326-14.672-15.919-38.226-19.081-56.559-.523-3.003-1.081-5.999-1.638-8.996-2.475-13.754-3.557-26.92-2.863-40.879l.117-2.782c.13-2.723.308-5.437.508-8.155l.135-2.457c.469-5.032 1.72-8.433 5.33-12.058 5.595-4.535 12.95-4.989 19.879-4.989l2.515-.038c1.764-.026 3.527-.046 5.291-.06 4.604-.04 9.207-.129 13.811-.219l2.742-.051c10.937-.226 21.794-1.046 32.672-2.191l2.105-.206c4.333-.433 8.604-1.06 12.895-1.794l2.423-.399c13.549-2.314 25.733-6.266 38.265-11.943 6.417-2.83 12.23-5.042 19.312-3.658Z" style="fill: rgb(1, 1, 0); fill-opacity: 1;" class="fills"/></g><g style="opacity: 1;"><path d="M2870.25 1445.438c17.655 15.165 24.574 40.104 26.476 62.441.388 5.39.499 10.721.274 16.121l-.055 2.777c-.847 18.949-6.711 37.92-11.236 56.245-.486 2.042-.944 4.09-1.378 6.144-1.713 8.023-4.237 15.393-7.394 22.959l-1.464 3.543c-6.834 16.264-14.79 32.919-26.473 46.332h-2l-.883-3.086c-2.221-7.693-4.545-15.33-7.117-22.914a448.722 448.722 0 0 1-6.106-19.535c-1.755-6.06-3.64-12.075-5.576-18.08a467.872 467.872 0 0 1-3.932-12.958c-3.319-11.468-7.043-22.792-10.824-34.114l-1.047-3.144c-4.844-14.507-9.85-28.944-15.14-43.294l-.853-2.32c-.807-2.189-1.619-4.377-2.436-6.563l-.767-2.058c-1.272-3.357-2.619-6.651-4.119-9.913l-.875-1.924a370.751 370.751 0 0 0-2.432-5.139c-.893-2.958-.893-2.958-.106-5.714L2786 1469l.937-2.168c2.84-5.398 2.84-5.398 6.262-6.613a158.34 158.34 0 0 1 5.129-.75c7.779-1.365 14.578-6.633 21.09-10.832 14.481-9.179 35.599-13.466 50.832-3.199Z" style="fill: rgb(251, 184, 61); fill-opacity: 1;" class="fills"/></g><g style="opacity: 1;"><path d="M2870.25 1445.438c17.656 15.165 24.574 40.104 26.476 62.441.388 5.39.499 10.721.274 16.121l-.055 2.777c-.846 18.948-6.711 37.919-11.235 56.244a243.303 243.303 0 0 0-1.379 6.145c-1.713 8.023-4.237 15.393-7.394 22.959l-1.464 3.543c-6.834 16.264-14.791 32.919-26.473 46.332h-2l-.883-3.086c-2.221-7.693-4.545-15.331-7.117-22.914a449.152 449.152 0 0 1-6.106-19.535c-1.755-6.06-3.64-12.075-5.576-18.08a468.914 468.914 0 0 1-3.932-12.958c-3.319-11.468-7.043-22.792-10.824-34.114l-1.047-3.144c-4.844-14.507-9.85-28.944-15.14-43.294l-.853-2.32a1517.21 1517.21 0 0 0-2.436-6.563l-.767-2.058c-1.272-3.357-2.619-6.651-4.119-9.913l-.875-1.924a370.751 370.751 0 0 0-2.432-5.139c-.893-2.958-.893-2.958-.106-5.714L2786 1469l.937-2.168c2.84-5.398 2.84-5.398 6.262-6.613a158.34 158.34 0 0 1 5.129-.75c7.779-1.365 14.578-6.633 21.09-10.832 14.481-9.179 35.599-13.466 50.832-3.199Z" style="fill: rgb(251, 184, 61); fill-opacity: 1;" class="fills"/></g><g style="opacity: 1;"><path d="M1684 1252c17.977-.955 34.62 6.157 48 18l2.481 2.086c23.158 19.97 30.772 48.925 36.519 77.914l.677 3.4c8.262 41.896 16.236 83.763 15.323 126.6l-2.179-.37c-23.541-3.961-47.043-6.681-70.821-8.63l1.207-3.7c3.025-9.364 5.779-18.658 7.793-28.3.394-1.772.79-3.543 1.188-5.313L1725 1430l-3.187.132c-16.167-.021-39.385-3.828-52.25-14.382-3.844-4.126-3.974-6.78-3.903-12.274.34-2.476.34-2.476 2.403-5.414 6.653-4.672 12.087-5.612 20.062-5.562l2.951.002c13.152.255 26.062 2.928 38.924 5.498.616-28.668-.191-56.406-9-84l-.647-2.041c-7.144-21.919-19.398-40.698-35.06-57.49C1684 1253 1684 1253 1684 1252Z" style="fill: rgb(252, 252, 252); fill-opacity: 1;" class="fills"/></g><g style="opacity: 1;"><path d="M1684 1252c17.977-.955 34.62 6.157 48 18l2.48 2.086c23.159 19.97 30.773 48.925 36.52 77.914l.678 3.4c8.261 41.896 16.235 83.764 15.322 126.6l-2.179-.369c-23.541-3.962-47.043-6.682-70.821-8.631l1.207-3.699c3.025-9.365 5.779-18.658 7.793-28.301.394-1.771.79-3.542 1.188-5.312L1725 1430l-3.187.133c-16.167-.021-39.385-3.828-52.25-14.383-3.844-4.125-3.974-6.779-3.903-12.273.34-2.477.34-2.477 2.403-5.414 6.653-4.672 12.087-5.613 20.062-5.563l2.951.002c13.152.255 26.062 2.928 38.924 5.498.616-28.668-.191-56.406-9-84l-.647-2.041c-7.144-21.919-19.398-40.698-35.06-57.49C1684 1253 1684 1253 1684 1252Z" style="fill: rgb(252, 252, 252); fill-opacity: 1;" class="fills"/></g><g style="opacity: 1;"><path d="M2391.225 1178.696c3.314 1.673 6.554 3.459 9.775 5.304l2.59 1.438c16.691 10.141 24.999 25.742 31.41 43.562a718.516 718.516 0 0 0 2.063 4.875c2.309 5.778 3.826 11.728 5.338 17.756.678 2.683 1.379 5.36 2.079 8.037 2.666 10.3 5.118 20.531 6.671 31.064.349 1.768.349 1.768.849 3.268l1 3c.405 1.769.757 3.551 1.086 5.336l.627 3.386.662 3.653.681 3.725a902.188 902.188 0 0 1 4.588 27.629 317.04 317.04 0 0 0 1.204 7.037c2.281 13.122 2.488 25.935 2.152 39.234l-3.557.06c-4.416.077-8.831.166-13.246.257-1.9.038-3.799.073-5.699.105-10.681.18-20.983.565-31.498 2.578-4.038.713-7.771 1.113-11.875 1.063l-2.93-.028L2393 1391c.445-4.005 1.166-7.699 2.313-11.562 1.965-6.896 3.112-13.939 4.329-20.997l.491-2.82.434-2.549C2401 1351 2401 1351 2402 1349l-2.883.048c-3.606.055-7.213.089-10.819.117-1.547.015-3.094.035-4.64.061-13.634.226-29.675.354-40.658-8.913-1.658-3.834-1.943-7.233-1-11.313 3.662-5.929 8.523-9.978 15.23-11.949 1.316-.266 2.635-.511 3.958-.738 1.102-.192 1.102-.192 2.228-.386 13.987-2.042 28.49-1.164 42.584-.927-.862-31.231-3.559-60.692-14.437-90.242C2390.5 1223 2390.5 1223 2390 1222c-.235-.469-1.742-3.269-2.125-4.437-1.908-5.058-4.748-9.185-7.875-13.563l-1.781-2.594c-5.714-8.149-12.184-16.455-20.051-22.629L2356 1177v-2c10.724-3.575 25.233-1.039 35.225 3.696ZM2452 1294" style="fill: rgb(252, 252, 252); fill-opacity: 1;" class="fills"/></g><g style="opacity: 1;"><path d="m1163.562 1200.688 2.999-.01c13.215.096 27.391 4.413 37.439 13.322 7.072 8.201 11.555 15.809 11.25 26.75l-.016 2.285c-.046 3.229-.207 5.884-1.234 8.965l.211 3.887c.41 8.643-.054 14.898-6.036 21.506a231.6 231.6 0 0 1-8.199 7.78c-2.921 2.701-5.567 5.622-8.226 8.577-.969 1.056-1.939 2.111-2.91 3.164l-1.423 1.548a1101.106 1101.106 0 0 1-4.288 4.624c-4.493 4.842-8.833 9.734-12.942 14.915-4.184 5.141-6.902 8.472-13.687 9.562-13.692-.784-28.305-9.231-37.531-19.043-10.919-13.974-14.942-34.155-12.969-51.52 2.983-17.504 7.579-33.606 21.637-45.371 4.752-3.275 10.012-5.515 15.363-7.629l2.008-.827c6.228-2.359 11.942-2.594 18.554-2.485Z" style="fill: rgb(251, 184, 61); fill-opacity: 1;" class="fills"/></g><g style="opacity: 1;"><path d="m1163.563 1200.688 2.998-.01c13.215.096 27.391 4.413 37.439 13.322 7.072 8.201 11.556 15.809 11.25 26.75l-.016 2.285c-.045 3.229-.234 3.465-.234 8.965.104 1.924-.107 2.037 0 4 .41 8.643-.843 14.785-6.825 21.393a231.6 231.6 0 0 1-8.199 7.78c-2.921 2.701-5.567 5.622-8.226 8.577-.969 1.056-1.939 2.111-2.91 3.164l-1.422 1.548a1247.825 1247.825 0 0 1-4.289 4.624c-4.493 4.842-8.833 9.734-12.941 14.914-4.185 5.141-6.902 8.472-13.688 9.563-13.692-.784-28.305-9.232-37.531-19.043-10.919-13.974-14.942-34.155-12.969-51.52 2.983-17.504 7.579-33.606 21.637-45.371 4.752-3.275 10.012-5.515 15.363-7.629l2.008-.827c6.228-2.359 11.942-2.594 18.555-2.485Z" style="fill: rgb(251, 184, 61); fill-opacity: 1;" class="fills"/></g><g style="opacity: 1;"><path d="m1198 860 2 1-2.812 2.625c-5.112 5.112-9.41 10.858-13.805 16.582a521.384 521.384 0 0 1-3.856 4.922c-7.309 9.306-13.944 19.043-20.527 28.871l-1.294 1.911c-16.841 24.914-26.891 51.648-32.706 81.089l-.605 3.045c-2.647 13.589-4.313 27.158-5.395 40.955l-1.844-1.25c-23.645-15.578-52.016-27.507-80.728-21.619-20.939 4.892-40.837 14.603-58.428 26.869 0-3.94 1.695-5.046 4.369-7.734l1.912-1.875 1.961-1.955c1.375-1.369 2.754-2.734 4.136-4.095 2.093-2.062 4.175-4.134 6.255-6.208 1.34-1.332 2.681-2.662 4.023-3.992l1.864-1.851c3.75-3.69 7.622-7.186 11.6-10.629 2.658-2.348 5.137-4.824 7.63-7.349l1.523-1.533c1.578-1.591 3.153-3.184 4.727-4.779 6.481-6.565 12.964-13.022 20-19 1.608-1.454 3.212-2.912 4.813-4.375a261.053 261.053 0 0 1 10.437-8.937c9.618-7.811 18.943-15.853 27.938-24.376 6.057-5.732 12.235-11.174 18.812-16.312l2.754-2.203c17.424-13.721 36.13-25.812 54.608-38.046 2.347-1.558 4.688-3.124 7.025-4.696 5.927-3.989 11.883-7.93 17.925-11.743l3.176-2.011L1198 860Z" style="fill: rgb(227, 159, 68); fill-opacity: 1;" class="fills"/></g><g style="opacity: 1;"><path d="m1198 860 2 1-2.812 2.625c-5.112 5.112-9.41 10.858-13.805 16.582a521.384 521.384 0 0 1-3.856 4.922c-7.309 9.306-13.944 19.043-20.527 28.871l-1.294 1.911c-16.841 24.914-26.891 51.648-32.706 81.089l-.605 3.045c-2.647 13.589-4.313 27.158-5.395 40.955l-1.844-1.25c-23.645-15.578-52.016-27.507-80.728-21.619-20.939 4.892-40.837 14.603-58.428 26.869 0-3.94 1.695-5.046 4.369-7.734l1.912-1.875 1.961-1.955c1.375-1.369 2.754-2.734 4.136-4.095 2.093-2.062 4.175-4.134 6.255-6.208 1.34-1.332 2.681-2.662 4.023-3.992l1.864-1.851c3.75-3.69 7.622-7.186 11.6-10.629 2.658-2.348 5.137-4.824 7.63-7.349l1.522-1.533c1.579-1.591 3.154-3.184 4.728-4.779 6.481-6.565 12.964-13.022 20-19 1.608-1.454 3.212-2.912 4.813-4.375a261.902 261.902 0 0 1 10.437-8.938c9.617-7.809 18.943-15.852 27.938-24.375 6.057-5.732 12.235-11.174 18.812-16.312l2.754-2.203c17.424-13.721 36.13-25.812 54.608-38.046 2.347-1.558 4.688-3.124 7.025-4.696 5.927-3.989 11.883-7.93 17.926-11.743l3.175-2.011L1198 860Z" style="fill: rgb(227, 159, 68); fill-opacity: 1;" class="fills"/></g><g style="opacity: 1;"><path d="M1545.779 755.739c4.02.012 8.039.005 12.059-.007 20.145-.049 40.073.62 60.162 2.268l7.219.568c7.18.573 14.356 1.185 21.531 1.807l3.768.324c19.878 1.716 39.698 3.713 59.482 6.301v1l-1.778.18c-35.689 3.763-63.934 15.965-89.222 41.82-3.783-1.339-6.541-3.027-9.687-5.5-33.872-24.923-78.464-38.39-119.313-45.5v-1c18.615-2.014 37.081-2.314 55.779-2.261Z" style="fill: rgb(227, 160, 72); fill-opacity: 1;" class="fills"/></g><g style="opacity: 1;"><path d="m2708.313 1267.75 2.046-.002c17.37.028 32.735 1.108 45.766 13.752 12.753 12.998 21.902 31.094 22.125 49.5-.063 3.45-.504 6.632-1.25 10-1.485-.99-1.5-1-2.5-2l-1.5-1.5-1-1c-2-1.5-2-1.5-4.75-4.125-12.735-11.106-35.455-19.103-52.23-18.148-4.369.214-7.801.082-12.02-1.227-3.035-3.539-4.778-7.088-6.703-11.297-2.821-6.143-6.903-11.302-10.958-16.673-2.659-3.564-4.99-6.729-6.339-11.03a594.58 594.58 0 0 1 4.688-2.437l2.636-1.372c6.942-3.091 14.536-2.434 21.989-2.441Z" style="fill: rgb(245, 60, 34); fill-opacity: 1;" class="fills"/></g><g style="opacity: 1;"><path d="M613 1701c3.176 2.01 4.61 3.394 5.508 7.09.337 4.284-.229 7.166-2.946 10.535-2.482 2.559-5.197 4.636-8.062 6.75-8.303 6.283-11.997 15.047-15.5 24.625l-.977 2.543c-5.238 15.788-2.423 32.995 4.727 47.582 3.233 6.352 6.958 12.179 11.25 17.875 2.457 3.685 2.701 6.72 2 11-1.794 2.81-3.019 4.509-6 6-1.988.238-1.988.238-4.313.313l-2.3.113c-4.529-.808-6.886-3.761-9.563-7.317-5.569-8.755-10.434-17.707-14.824-27.109l-1.602-3.285c-6.265-16.644-5.561-38.194.602-54.715l1.168-3.184c1.179-2.994 2.471-5.9 3.832-8.816l1.16-2.695c2.956-6.2 6.925-10.845 11.715-15.68l1.748-1.767c6.35-6.166 13.066-12 22.377-9.858Z" style="fill: rgb(99, 30, 12); fill-opacity: 1;" class="fills"/></g><g style="opacity: 1;"><path d="M1955 1651c12.071.237 22.291 8.287 31 16l1.973 1.652c4.925 4.46 8.57 9.752 12.277 15.223l1.539 2.251c4.27 6.479 8.927 13.847 8.211 21.874-6.465 7.902-17.13 14.798-27.328 16.355-4.106.252-6.065.076-9.484-2.355-13.057-17.906-19.045-49.135-18.188-71Z" style="fill: rgb(252, 168, 168); fill-opacity: 1;" class="fills"/></g><g style="opacity: 1;"><path d="M2482 1059c19.467-.66 35.254 5.438 50 18l1.547 1.314c18.947 16.256 31.386 37.694 34.453 62.686-3.129-2.275-5.689-4.71-8.18-7.644-3.783-4.369-7.788-8.468-11.879-12.547l-2.266-2.27a5238.841 5238.841 0 0 0-4.717-4.712c-2.389-2.383-4.772-4.772-7.155-7.161l-4.612-4.607-2.128-2.135a226.658 226.658 0 0 0-12.263-11.362c-2.951-2.561-5.772-5.257-8.612-7.937-5.861-5.488-11.905-10.623-18.188-15.625a232.532 232.532 0 0 1-6-5v-1Z" style="fill: rgb(158, 95, 43); fill-opacity: 1;" class="fills"/></g><g style="opacity: 1;"><path d="M2615 1169c11.179 4.897 16.588 18.485 20.872 29.176 2.843 7.461 3.269 13.929 3.128 21.824-3.633-3.541-6.995-7.232-10.25-11.125l-1.436-1.707A1176.141 1176.141 0 0 1 2614 1191l-2.324-2.473c-1.676-2.527-1.676-2.527-1.481-5.211l.93-2.753.934-2.891.941-2.672 1.188-3.687.812-2.313Z" style="fill: rgb(157, 94, 42); fill-opacity: 1;" class="fills"/></g><g style="opacity: 1;"><path d="M2734 1371c7.496 7.055 15.706 16.614 16.133 27.336L2750 1401c-3.489-4.003-5.729-8.13-8-12.875-1.973-4.077-3.952-8.102-6.25-12.008C2734 1373 2734 1373 2734 1371Z" style="fill: rgb(152, 89, 40); fill-opacity: 1;" class="fills"/></g><g style="opacity: 1;"><path d="m1008 1012 2 1-25 25 1 2-9 5c1.617-3.234 2.472-4.72 4.889-7.116l1.759-1.759 1.891-1.859 1.942-1.934c2.043-2.032 4.094-4.057 6.144-6.082l4.164-4.137A5409.1 5409.1 0 0 1 1008 1012Z" style="fill: rgb(208, 139, 59); fill-opacity: 1;" class="fills"/></g><g style="opacity: 1;"><path d="m1008 1012 2 1-25 25 1 2-9 5c1.617-3.234 2.472-4.72 4.889-7.116l1.759-1.759 1.891-1.859 1.942-1.934c2.043-2.032 4.094-4.057 6.144-6.082A5125.71 5125.71 0 0 1 1008 1012Z" style="fill: rgb(208, 139, 59); fill-opacity: 1;" class="fills"/></g><g style="opacity: 1;"><path d="M1506 757v1h-6v2l-10-1v-1a98.442 98.442 0 0 1 16-1Z" style="fill: rgb(206, 137, 59); fill-opacity: 1;" class="fills"/></g></g></g></svg>